<svg id="Layer_1" data-name="Layer 1" xmlns="http://www.w3.org/2000/svg" viewBox="0 0 327.83 576"><defs><clipPath id="clip-path"><path class="cls-1" d="M-349.45-249.62h1920v1080h-1920z"/></clipPath><clipPath id="clip-path-2"><path class="cls-1" d="M97.73 22.68l205.08 181.69V41.56a54.37 54.37 0 00-21-18.88z"/></clipPath><clipPath id="clip-path-3"><path class="cls-1" d="M72.08 16.87a54.22 54.22 0 00-54.23 54.22v185.26c0 .79 0 1.57.06 2.36 0 1.36-.06 2.72-.06 4.09a146.86 146.86 0 00293.71 0c0-1.37 0-2.73-.06-4.09 0-.79.06-1.57.06-2.36V71.09a54.22 54.22 0 00-54.23-54.22z"/></clipPath><style>.cls-1{fill:none}.cls-2{fill:#335296}.cls-3{clip-path:url(#clip-path)}.cls-5,.cls-7{fill:#93d4da}.cls-7{fill-rule:evenodd}</style></defs><path class="cls-2" d="M50.43 497.24H65c1.66 0 2.36.83 2.08 2.49l-4 22.35a3.79 3.79 0 01-2.08 2.63q-6.72 3.6-17.1 3.6-9.83 0-15.4-4.56T23 509.63a43.7 43.7 0 01.69-6.93q2.3-13.21 9.62-19.14t19.25-5.91q10.17 0 15.22 3.8a2.72 2.72 0 011.11 1.42 3.27 3.27 0 01-.48 1.91L64.76 491q-1.19 2.07-3.67 1.1a21.75 21.75 0 00-7.82-1.45q-6.65 0-9.87 2.7T38.94 503a26.61 26.61 0 00-.42 4.36q0 4.29 2.25 6.13t7 1.83a12.68 12.68 0 003.6-.42l1.18-6.78H48.7c-1.66 0-2.35-.8-2.08-2.42l1-5.95a2.6 2.6 0 012.81-2.51zm29.62-18.76h17.07q19 0 19 13.43a25.74 25.74 0 01-.41 4.36 18.26 18.26 0 01-11.49 14.39l5.88 13.71a2.5 2.5 0 01.07 2.21 1.85 1.85 0 01-1.8.9h-9.59a3.13 3.13 0 01-3.26-2L90.6 513h-4.09l-2.15 12c-.32 1.67-1.23 2.5-2.75 2.5h-9.88c-1.79 0-2.53-.82-2.2-2.48l7.76-44a2.6 2.6 0 012.76-2.54zm8.57 22.62h5a8.24 8.24 0 004.89-1.2 5.82 5.82 0 002.11-3.81 8 8 0 00.14-1.65 3 3 0 00-1.25-2.75 8.28 8.28 0 00-4.08-.75h-5zm56.7-23.45q9.13 0 14.33 4.53t5.19 13.88a38.24 38.24 0 01-.69 7.06q-4.5 25.2-26.37 25.19-9.14 0-14.29-4.53T118.33 510a38.56 38.56 0 01.69-7.13q4.5-25.21 26.3-25.22zm-5.95 37.79a7.31 7.31 0 006-2.91q2.31-2.91 3.49-9.55a36.78 36.78 0 00.56-5.47q0-7-5.61-7a7.31 7.31 0 00-6 2.91q-2.31 2.91-3.49 9.55a36.78 36.78 0 00-.56 5.47q0 7 5.61 7zm47.41 12.8q-18.4 0-18.41-14.46a28.37 28.37 0 01.42-4.71l5-28.09a2.58 2.58 0 012.75-2.5h10c1.74 0 2.47.82 2.19 2.48l-4.69 26.65a20.8 20.8 0 00-.21 3 3.74 3.74 0 004.36 4.36 5.68 5.68 0 004.46-1.73 11.24 11.24 0 002.25-5.53l4.76-26.71a2.6 2.6 0 012.77-2.49h10.12q2.64 0 2.22 2.49l-5 28.1q-1.74 9.82-7.3 14.5t-15.69 4.64zM263.49 481l-7.77 44a2.67 2.67 0 01-2.83 2.5h-9.62a2.79 2.79 0 01-2.84-1.52l-8.23-22.18-3.74 21.2a2.67 2.67 0 01-2.82 2.5h-9.52c-1.75 0-2.46-.83-2.14-2.49l7.77-44a2.59 2.59 0 012.76-2.49h9.62c1.52 0 2.47.51 2.84 1.52l8.3 22.15L249 481a2.58 2.58 0 012.75-2.49h9.52c1.73-.03 2.49.79 2.22 2.49zm17.6 46.48h-15.9c-1.75 0-2.46-.82-2.14-2.48l7.69-44a2.6 2.6 0 012.77-2.49h14.88q10.51 0 15.75 4.32t5.22 13.54a39.41 39.41 0 01-.55 6.64q-2.07 12.87-8.71 18.69t-19.01 5.78zm5-36h-2.15l-4 23h2.14q5.06 0 7.69-2.46c1.75-1.63 3-4.65 3.8-9a32.53 32.53 0 00.49-4.5q0-3.87-1.91-5.43c-1.27-1.09-3.29-1.6-6.07-1.6z"/><g class="cls-3"><path class="cls-2" d="M311.56 71.09a54.22 54.22 0 00-54.23-54.22H72.08a54.22 54.22 0 00-54.23 54.22v185.26c0 .79 0 1.57.06 2.35 0 1.37-.06 2.73-.06 4.1a146.86 146.86 0 10293.71 0c0-1.37 0-2.73-.06-4.1 0-.78.06-1.56.06-2.35z"/></g><g clip-path="url(#clip-path-2)"><path class="cls-5" d="M149.27 22.74h7.89v181.09h-7.89zm-12.14 0h7.89v181.09h-7.89zm24.28 0h7.89v181.09h-7.89zm12.14 0h7.89v181.09h-7.89zm12.14 0h7.89v181.09h-7.89zm12.14 0h7.89v181.09h-7.89zm12.14 0h7.89v181.09h-7.89zm12.14 0H230v181.09h-7.89zm12.14 0h7.89v181.09h-7.89zm12.14 0h7.89v181.09h-7.89zm12.14 0h7.89v181.09h-7.89zm12.14 0h7.89v181.09h-7.89zm12.14 0h7.89v181.09h-7.89zm12.14 0h7.89v181.09h-7.89z"/></g><g clip-path="url(#clip-path-3)"><path class="cls-5" d="M55.73 11.72h-76.3v425.71h556.82L55.73 11.72z"/><path class="cls-2" d="M-4.43 212.77L-218.86 22.58l428.14.23L-4.43 212.77zM-233.2 417.83L-4.62 212.76 225.5 417.83h-458.7zM203.94 234.5A22.09 22.09 0 10226 212.41a22.09 22.09 0 00-22.09 22.09"/><path class="cls-2" d="M226 260.91a26.41 26.41 0 1126.41-26.41A26.44 26.44 0 01226 260.91m0-44.17a17.76 17.76 0 1017.75 17.76A17.78 17.78 0 00226 216.74M66.09 234.5a22.09 22.09 0 1022.09-22.09 22.09 22.09 0 00-22.09 22.09"/><path class="cls-2" d="M88.18 260.91a26.41 26.41 0 1126.41-26.41 26.44 26.44 0 01-26.41 26.41m0-44.17a17.76 17.76 0 1017.76 17.76 17.78 17.78 0 00-17.76-17.76"/><path class="cls-2" d="M253.79 229.81l-13-22.08h-27.92l-18.16 22.08h-79.38l-13.54-22.08H75.33l-13.24 22.08s-7.55 2.15-10.76-5.54v-8h5.84l5.54-45.54h108l16.92 21.85 48.62 2.15 4.62 7.08s8.3 0 8.92 4.31-.31 6.29-.31 6.29l1.23 3.25h6.77v10.15z"/><path class="cls-2" d="M59.74 234.44c-4.17 0-9.6-1.79-12.41-8.5a4.33 4.33 0 01-.33-1.67v-8a4.32 4.32 0 014.32-4.27h2l5.07-41.74a4.33 4.33 0 014.3-3.8h108a4.34 4.34 0 013.42 1.67l15.7 20.27 46.61 2.06a4.32 4.32 0 013.43 2l3.43 5.25c4.94.54 10 2.81 10.77 7.89a20.94 20.94 0 01.1 5.82h3.31a4.33 4.33 0 014.33 4.33v10.15a4.33 4.33 0 01-1.15 2.94l-3.69 4a4.34 4.34 0 01-6.91-.74l-11.75-20h-23.4l-16.86 20.51a4.33 4.33 0 01-3.34 1.58h-79.36a4.3 4.3 0 01-3.69-2.07l-12.28-20H77.78l-12 20a4.32 4.32 0 01-2.5 1.88 13.26 13.26 0 01-3.54.47m-4.09-11.17a4.37 4.37 0 003.81 2.5l12.15-20.3a4.35 4.35 0 013.72-2.1h26.46a4.33 4.33 0 013.69 2.07l12.27 20h74.92L209.52 205a4.33 4.33 0 013.34-1.58h23.88l-2.9-4.44-46.4-2.06a4.32 4.32 0 01-3.23-1.67l-15.62-20.17h-102l-5.07 41.73a4.33 4.33 0 01-4.3 3.81h-1.57zM253 220l.14.23V220zm-7.64-13l.2.35v-.25l-.17-.1m-86.68-45.45H76.57a6.06 6.06 0 110-12.11h82.14a6.06 6.06 0 110 12.11m30.17 88.63h-63a6.06 6.06 0 010-12.11h63a6.06 6.06 0 010 12.11"/><path class="cls-5" d="M180.38 190.59l-13.45-18.15h-20.2v18.15h33.65z"/><path class="cls-7" d="M99.07 234.5a10.89 10.89 0 11-10.89-10.89 10.9 10.9 0 0110.89 10.89m137.84 0A10.89 10.89 0 11226 223.61a10.89 10.89 0 0110.88 10.89M90.33 212.41a18.15 18.15 0 1118.15-18.15 18.18 18.18 0 01-18.15 18.15"/><path fill-rule="evenodd" fill="#335296" d="M86.96 181.24h6.74v6.55l5.36-3.75 3.86 5.51-6.72 4.71 6.72 4.71-3.86 5.51-5.36-3.75v6.55h-6.74v-6.55l-5.36 3.75-3.86-5.51 6.72-4.71-6.72-4.71 3.86-5.51 5.36 3.75v-6.55z"/><path class="cls-2" d="M185.35 325.15h40.15a34.68 34.68 0 00-46.95-16L207 280.72a34.71 34.71 0 00-44.69 22.53 34.71 34.71 0 00-44.7-22.53l27.49 27.49a34.66 34.66 0 00-44.85 16.94h39a34.74 34.74 0 00-20.83 44.13l35.17-35.17V403h16.79v-69.5l35.77 35.78a34.72 34.72 0 00-20.83-44.13"/><path class="cls-5" d="M100.26 325.15h21.24l-12.63-11.25a35 35 0 00-8.61 11.25m26.4 8.06a34.73 34.73 0 00-8.21 36.07l24.77-24.77-14.65-13.06c-.65.56-1.29 1.14-1.91 1.76m26.96 69.76h16.79v-34.23l-16.79-14.97v49.2z"/></g><g class="cls-3"><path class="cls-7" d="M87.4 72.2l-11.09-9.87h30.54L87.4 45.03l-19.44-17.3-19.45 17.3-19.44 17.3h30.54l-11.1 9.87-19.44 17.31h29.71l-10.27 9.13-19.44 17.3h77.78L87.4 98.64l-10.27-9.13h29.72L87.4 72.2z"/><path d="M257.33 30.22a40.92 40.92 0 0140.88 40.87v187.98c0 1.34.06 2.56.06 3.73A133.51 133.51 0 0170.3 357.2a132.6 132.6 0 01-39.1-94.4c0-1.17 0-2.39.05-3.73v-.94c0-.54-.05-1.18-.05-1.78V71.09a40.92 40.92 0 0140.88-40.87h185.25m0-13.35H72.08a54.22 54.22 0 00-54.23 54.22v185.26c0 .79 0 1.57.06 2.35 0 1.37-.06 2.73-.06 4.1a146.86 146.86 0 10293.71 0c0-1.37 0-2.73-.06-4.1 0-.78.06-1.56.06-2.35V71.09a54.22 54.22 0 00-54.23-54.22" fill="#fff"/><path class="cls-2" d="M257.33 16.87a54.22 54.22 0 0154.23 54.22v185.26c0 .79 0 1.57-.06 2.35 0 1.37.06 2.73.06 4.1a146.86 146.86 0 11-293.71 0c0-1.37 0-2.73.06-4.1 0-.78-.06-1.56-.06-2.35V71.09a54.22 54.22 0 0154.23-54.22h185.25m0-13.36H72.08A67.65 67.65 0 004.5 71.09V262.8a160.24 160.24 0 00307.81 62.36 159.13 159.13 0 0012.6-62.36c0-1.28 0-2.59-.06-4 0-.7.06-1.56.06-2.45V71.09a67.66 67.66 0 00-67.58-67.58"/></g><path d="M102.14 569.35h-6.45c-.5 0-.7-.22-.61-.67l4-22.41a.71.71 0 01.78-.68h5.84c3.41 0 6 .66 7.76 2s2.65 3.44 2.65 6.39a19.56 19.56 0 01-.3 3.21q-1.16 6.69-4.43 9.45c-2.23 1.8-5.3 2.71-9.24 2.71zm3.12-20.35h-3l-3 17h3a9.83 9.83 0 006.42-1.89c1.53-1.26 2.61-3.57 3.21-6.93a15.7 15.7 0 00.27-2.63c0-2-.57-3.49-1.73-4.31a9 9 0 00-5.17-1.24zm13.17 19.68l3.95-22.41a.74.74 0 01.78-.68h2.37c.47 0 .66.13.57.4l-4 22.68a.69.69 0 01-.76.68H119c-.44 0-.64-.22-.57-.67zm19.24.67h-2.9c-.42 0-.66-.23-.73-.71l-3.85-22.3c0-.5.16-.75.62-.75h2.39c.39 0 .61.23.65.67l2.26 13.74.61 5.58h.07l2.6-5.64 7-13.66a1 1 0 01.91-.64h2.7a.5.5 0 01.46.22.55.55 0 01-.06.53l-11.69 22.3a1.12 1.12 0 01-1.04.66zm13-.67l4-22.41a.74.74 0 01.77-.68h2.37c.48 0 .67.13.58.4l-4 22.68a.71.71 0 01-.77.68h-2.3c-.51 0-.71-.22-.65-.67zm25.66-6.59a6.38 6.38 0 01-2.81 5.67 12.23 12.23 0 01-7 1.9 23.13 23.13 0 01-4.12-.36 10.16 10.16 0 01-2.94-.86c-.41-.2-.53-.46-.37-.78l1-1.82c.2-.45.5-.59.88-.41a13.39 13.39 0 005.44 1 11.58 11.58 0 002.05-.18 10.35 10.35 0 002-.6 3.63 3.63 0 001.58-1.22 3.23 3.23 0 00.59-1.93 2.1 2.1 0 00-.29-1.07 4.69 4.69 0 00-.58-.82 4.26 4.26 0 00-1.12-.71l-1.19-.56-1.42-.68a14.56 14.56 0 01-4.23-2.45 4.64 4.64 0 01-1.48-3.64 6.28 6.28 0 012.57-5.5 11.32 11.32 0 016.72-1.83 14.48 14.48 0 016.19 1.08.57.57 0 01.34.81l-1 1.76a.7.7 0 01-1 .37 11.78 11.78 0 00-4.6-.77c-3.67 0-5.51 1.21-5.51 3.65a2.62 2.62 0 00.07.57 2.14 2.14 0 00.22.52c.1.17.2.31.29.44a1.74 1.74 0 00.46.4l.49.36a3.2 3.2 0 00.61.34l.64.3.73.35.75.36 1.81.85a13 13 0 011.61.94 6.75 6.75 0 011.4 1.19 4.9 4.9 0 01.84 1.45 5 5 0 01.38 1.88zm3.31 6.59l4-22.41a.74.74 0 01.78-.68h2.37c.47 0 .66.13.57.4l-4 22.68a.69.69 0 01-.76.68h-2.31c-.52 0-.72-.22-.65-.67zm22.68-23.46a8.92 8.92 0 016.52 2.26c1.54 1.51 2.3 3.7 2.3 6.56a21 21 0 01-.34 3.45q-1.08 6-4.15 9.11a10.87 10.87 0 01-8.05 3.09 8.93 8.93 0 01-6.52-2.25c-1.53-1.49-2.3-3.69-2.3-6.57a21 21 0 01.3-3.41q1-6 4.18-9.13a10.94 10.94 0 018.06-3.11zm-3.45 21.19q6.56 0 8.15-8.95a17.84 17.84 0 00.3-3.08q0-5.88-5.3-5.88-6.53 0-8.15 9a21.65 21.65 0 00-.27 3.11q0 5.8 5.27 5.8zm36.94-20.17l-4 22.44a.71.71 0 01-.78.67h-2.28a.84.84 0 01-.84-.51l-8-17.06-3 16.9a.71.71 0 01-.74.67H214c-.5 0-.7-.22-.61-.67l3.95-22.41a.74.74 0 01.82-.68h2.23q.67 0 .84.48l8 17.1 2.94-16.9a.72.72 0 01.79-.68h2.28a.54.54 0 01.57.65z" fill="#ef3e42"/></svg>