<svg xmlns="http://www.w3.org/2000/svg" width="3840" height="2160"><defs><clipPath id="a"/><clipPath id="b"><path d="M742.523 796.762C858.453 639.75 952.965 458.199 1115.68 350.43c170.351-112.84 386.43-125.192 590.761-125.23 204.34-.052 416.52 7.16 603.559-75.11 85.121-37.43 161.5-92.11 234.2-150.09H845.226c-34.375 39.852-65.622 83.012-96.293 125.629L498.94 473c-41.82 58.11-84.714 117.3-142.996 158.879C295.496 675 221.621 696.5 147.68 703.262c-49.211 4.5-98.93 2.539-147.68-5.453v564.55c78.625-5.37 156.77-22.648 230.059-50.57 208.246-79.34 380.093-235.75 512.464-415.027zm0 0"/></clipPath><clipPath id="c"><path d="M742.523 796.762C858.453 639.75 952.965 458.199 1115.68 350.43c170.351-112.84 386.43-125.192 590.761-125.23 204.34-.052 416.52 7.16 603.559-75.11 85.121-37.43 161.5-92.11 234.2-150.09H845.226c-34.375 39.852-65.622 83.012-96.293 125.629L498.94 473c-41.82 58.11-84.714 117.3-142.996 158.879C295.496 675 221.621 696.5 147.68 703.262c-49.211 4.5-98.93 2.539-147.68-5.453v564.55c78.625-5.37 156.77-22.648 230.059-50.57 208.246-79.34 380.093-235.75 512.464-415.027"/></clipPath><clipPath id="e"><path d="M0 0h608v434H0zm0 0"/></clipPath><clipPath id="f"><path d="M306.844 354.11C402.48 276.09 450.68 154.128 534.602 63.62 556.508 39.988 580.879 18.7 607.105 0H0v423.14a341.293 341.293 0 0039.754 7.481c94.437 12 193.328-16.332 267.09-76.512zm0 0"/></clipPath><clipPath id="g"><path d="M306.844 354.11C402.48 276.09 450.68 154.128 534.602 63.62 556.508 39.988 580.879 18.7 607.105 0H0v423.14a341.293 341.293 0 0039.754 7.481c94.437 12 193.328-16.332 267.09-76.512"/></clipPath><clipPath id="i"><path d="M195 0h3293v2160H195zm0 0"/></clipPath><clipPath id="j"><path d="M1256.762 1808.43c117.187-45.621 244.886-63.04 357.566-118.88 351.031-173.96 443.07-648.46 758.371-880.991 127.461-94 282.242-141.258 431.36-194.61 159.89-57.199 320.3-125.41 444.91-240.789C3359.359 270.95 3432.91 140.81 3487.699 0h-409.68c-26.859 28.148-55.199 54.871-85.37 79.82C2654 359.91 2151.39 365.68 1806.91 638.55c-310.058 245.61-446.058 672.68-779.039 886.169-134.684 86.36-292.066 130.722-431.41 209.34-172.516 97.332-313.168 248.73-401.336 425.941h659.129c88.656-158.5 233.125-285.621 402.508-351.57zm0 0"/></clipPath><clipPath id="k"><path d="M1256.762 1808.43c117.187-45.621 244.886-63.04 357.566-118.88 351.031-173.96 443.07-648.46 758.371-880.991 127.461-94 282.242-141.258 431.36-194.61 159.89-57.199 320.3-125.41 444.91-240.789C3359.359 270.95 3432.91 140.81 3487.699 0h-409.68c-26.859 28.148-55.199 54.871-85.37 79.82C2654 359.91 2151.39 365.68 1806.91 638.55c-310.058 245.61-446.058 672.68-779.039 886.169-134.684 86.36-292.066 130.722-431.41 209.34-172.516 97.332-313.168 248.73-401.336 425.941h659.129c88.656-158.5 233.125-285.621 402.508-351.57"/></clipPath><clipPath id="m"><path d="M0 0h846v706H0zm0 0"/></clipPath><clipPath id="n"><path d="M147.68 703.262C221.62 696.5 295.496 675 355.945 631.879 414.227 590.3 457.121 531.109 498.941 473c83.329-115.79 166.66-231.578 249.993-347.371C779.605 83.012 810.852 39.852 845.227 0H607.105c-26.226 18.7-50.597 39.988-72.503 63.621C450.68 154.13 402.48 276.09 306.844 354.11c-73.762 60.18-172.653 88.512-267.09 76.512A341.293 341.293 0 010 423.141v274.668c48.75 7.992 98.469 9.953 147.68 5.453zm0 0"/></clipPath><clipPath id="o"><path d="M147.68 703.262C221.62 696.5 295.496 675 355.945 631.879 414.227 590.3 457.121 531.109 498.941 473c83.329-115.79 166.66-231.578 249.993-347.371C779.605 83.012 810.852 39.852 845.227 0H607.105c-26.226 18.7-50.597 39.988-72.503 63.621C450.68 154.13 402.48 276.09 306.844 354.11c-73.762 60.18-172.653 88.512-267.09 76.512A341.293 341.293 0 010 423.141v274.668c48.75 7.992 98.469 9.953 147.68 5.453"/></clipPath><clipPath id="q"><path d="M0 0h3079v2160H0zm0 0"/></clipPath><clipPath id="r"><path d="M596.46 1734.059c139.345-78.618 296.727-122.98 431.411-209.34 332.98-213.489 468.98-640.559 779.04-886.168C2151.39 365.68 2654 359.91 2992.647 79.82 3022.82 54.87 3051.16 28.147 3078.02 0H2544.2c-72.7 57.98-149.079 112.66-234.2 150.09-187.04 82.27-399.219 75.058-603.559 75.11-204.332.038-420.41 12.39-590.761 125.23C952.965 458.2 858.453 639.75 742.523 796.762c-132.37 179.277-304.218 335.687-512.464 415.027-73.29 27.922-151.434 45.2-230.059 50.57V2160h195.125c88.168-177.21 228.82-328.61 401.336-425.941zm0 0"/></clipPath><clipPath id="s"><path d="M596.46 1734.059c139.345-78.618 296.727-122.98 431.411-209.34 332.98-213.489 468.98-640.559 779.04-886.168C2151.39 365.68 2654 359.91 2992.647 79.82 3022.82 54.87 3051.16 28.147 3078.02 0H2544.2c-72.7 57.98-149.079 112.66-234.2 150.09-187.04 82.27-399.219 75.058-603.559 75.11-204.332.038-420.41 12.39-590.761 125.23C952.965 458.2 858.453 639.75 742.523 796.762c-132.37 179.277-304.218 335.687-512.464 415.027-73.29 27.922-151.434 45.2-230.059 50.57V2160h195.125c88.168-177.21 228.82-328.61 401.336-425.941"/></clipPath><clipPath id="u"><path d="M2256 956h1584v1204H2256zm0 0"/></clipPath><clipPath id="v"><path d="M3558.95 959.988c-209.938-4.5-441.848-18.828-605.712 112.5-130.27 104.41-183.18 275.973-221.886 438.371-38.711 162.403-73.961 334.391-183.59 460.301-76.903 88.328-181.723 143.781-291.223 188.84h520.512c39.77-71.832 66.87-151.488 83.61-232.031 18.577-89.39 25.57-181.29 51.269-268.89 25.699-87.61 73.761-173.56 152.789-219.259 106.953-61.851 240.793-36.582 361.64-10.922 136.84 29.07 274.79 56.383 413.641 72.262V956.148a4020.945 4020.945 0 01-281.05 3.84zm0 0"/></clipPath><clipPath id="w"><path d="M3558.95 959.988c-209.938-4.5-441.848-18.828-605.712 112.5-130.27 104.41-183.18 275.973-221.886 438.371-38.711 162.403-73.961 334.391-183.59 460.301-76.903 88.328-181.723 143.781-291.223 188.84h520.512c39.77-71.832 66.87-151.488 83.61-232.031 18.577-89.39 25.57-181.29 51.269-268.89 25.699-87.61 73.761-173.56 152.789-219.259 106.953-61.851 240.793-36.582 361.64-10.922 136.84 29.07 274.79 56.383 413.641 72.262V956.148a4020.945 4020.945 0 01-281.05 3.84"/></clipPath><clipPath id="y"><path d="M2777 1401h1063v759H2777zm0 0"/></clipPath><clipPath id="z"><path d="M3064.719 1439.82c-79.028 45.7-127.09 131.649-152.79 219.258-25.699 87.602-32.69 179.5-51.269 268.89-16.738 80.544-43.84 160.2-83.61 232.032h433.028c15.152-76.43 24.91-155.48 71.352-216.828 25.629-33.863 60.672-59.442 97.218-81.07 137.723-81.473 301.25-111.743 461.352-107.922v-253.02c-138.852-15.879-276.8-43.191-413.64-72.262-120.848-25.66-254.688-50.93-361.641 10.922zm0 0"/></clipPath><clipPath id="A"><path d="M3064.719 1439.82c-79.028 45.7-127.09 131.649-152.79 219.258-25.699 87.602-32.69 179.5-51.269 268.89-16.738 80.544-43.84 160.2-83.61 232.032h433.028c15.152-76.43 24.91-155.48 71.352-216.828 25.629-33.863 60.672-59.442 97.218-81.07 137.723-81.473 301.25-111.743 461.352-107.922v-253.02c-138.852-15.879-276.8-43.191-413.64-72.262-120.848-25.66-254.688-50.93-361.641 10.922"/></clipPath><clipPath id="C"><path d="M3210 1753h630v407h-630zm0 0"/></clipPath><clipPath id="D"><path d="M3378.648 1862.102c-36.546 21.628-71.59 47.207-97.218 81.07-46.442 61.348-56.2 140.398-71.352 216.828H3840v-405.82c-160.102-3.82-323.629 26.449-461.352 107.922zm0 0"/></clipPath><clipPath id="E"><path d="M3378.648 1862.102c-36.546 21.628-71.59 47.207-97.218 81.07-46.442 61.348-56.2 140.398-71.352 216.828H3840v-405.82c-160.102-3.82-323.629 26.449-461.352 107.922"/></clipPath><clipPath id="G"><path d="M1427 397h2413v1763H1427zm0 0"/></clipPath><clipPath id="H"><path d="M2547.762 1971.16c109.629-125.91 144.879-297.898 183.59-460.3 38.707-162.4 91.617-333.962 221.886-438.372 163.864-131.328 395.774-117 605.711-112.5 93.692 2 187.45.711 281.051-3.84V397.102a2177.39 2177.39 0 01-53.148 30.277c-257.364 141.832-537.864 235.902-805.282 357.7-107.441 48.94-216.21 105.05-290.539 196.773-163.71 202.02-119.86 522.238-297.11 712.488-162.093 173.98-435.19 166.02-657.35 250.82-118.45 45.2-225.333 119.93-309.321 214.84h829.29c109.5-45.059 214.32-100.512 291.222-188.84zm0 0"/></clipPath><clipPath id="I"><path d="M2547.762 1971.16c109.629-125.91 144.879-297.898 183.59-460.3 38.707-162.4 91.617-333.962 221.886-438.372 163.864-131.328 395.774-117 605.711-112.5 93.692 2 187.45.711 281.051-3.84V397.102a2177.39 2177.39 0 01-53.148 30.277c-257.364 141.832-537.864 235.902-805.282 357.7-107.441 48.94-216.21 105.05-290.539 196.773-163.71 202.02-119.86 522.238-297.11 712.488-162.093 173.98-435.19 166.02-657.35 250.82-118.45 45.2-225.333 119.93-309.321 214.84h829.29c109.5-45.059 214.32-100.512 291.222-188.84"/></clipPath><clipPath id="K"><path d="M854 0h2986v2160H854zm0 0"/></clipPath><clipPath id="L"><path d="M1736.57 1945.16c222.16-84.8 495.258-76.84 657.352-250.82 177.25-190.25 133.398-510.469 297.11-712.488 74.327-91.723 183.097-147.832 290.538-196.774 267.418-121.797 547.918-215.867 805.282-357.7A2177.39 2177.39 0 003840 397.103V0h-352.3c-54.79 140.809-128.34 270.95-238.731 373.16-124.61 115.38-285.02 183.59-444.91 240.79-149.118 53.35-303.899 100.609-431.36 194.609-315.3 232.53-407.34 707.03-758.37 880.992-112.68 55.84-240.38 73.258-357.567 118.879-169.383 65.949-313.852 193.07-402.508 351.57h572.996c83.988-94.91 190.871-169.64 309.32-214.84zm0 0"/></clipPath><clipPath id="M"><path d="M1736.57 1945.16c222.16-84.8 495.258-76.84 657.352-250.82 177.25-190.25 133.398-510.469 297.11-712.488 74.327-91.723 183.097-147.832 290.538-196.774 267.418-121.797 547.918-215.867 805.282-357.7A2177.39 2177.39 0 003840 397.103V0h-352.3c-54.79 140.809-128.34 270.95-238.731 373.16-124.61 115.38-285.02 183.59-444.91 240.79-149.118 53.35-303.899 100.609-431.36 194.609-315.3 232.53-407.34 707.03-758.37 880.992-112.68 55.84-240.38 73.258-357.567 118.879-169.383 65.949-313.852 193.07-402.508 351.57h572.996c83.988-94.91 190.871-169.64 309.32-214.84"/></clipPath><linearGradient id="d" gradientUnits="userSpaceOnUse" x1="-1.242" y1="0" x2="1.488" y2="0" gradientTransform="rotate(-120 871.567 -20.853) scale(866.68)"><stop offset="0" stop-color="#FFF"/><stop offset=".5" stop-color="#FFF"/><stop offset=".563" stop-color="#FFF"/><stop offset=".57" stop-color="#FFF"/><stop offset=".578" stop-color="#FEFEFE"/><stop offset=".586" stop-color="#FDFDFD"/><stop offset=".594" stop-color="#FCFCFD"/><stop offset=".602" stop-color="#FCFCFC"/><stop offset=".609" stop-color="#FBFBFB"/><stop offset=".617" stop-color="#FAFAFA"/><stop offset=".625" stop-color="#F9FAFA"/><stop offset=".633" stop-color="#F9F9F9"/><stop offset=".641" stop-color="#F8F8F8"/><stop offset=".648" stop-color="#F7F7F8"/><stop offset=".656" stop-color="#F6F7F7"/><stop offset=".664" stop-color="#F6F6F6"/><stop offset=".672" stop-color="#F5F5F6"/><stop offset=".68" stop-color="#F4F4F5"/><stop offset=".688" stop-color="#F3F4F4"/><stop offset=".695" stop-color="#F3F3F4"/><stop offset=".703" stop-color="#F2F2F3"/><stop offset=".711" stop-color="#F1F2F2"/><stop offset=".719" stop-color="#F0F1F1"/><stop offset=".727" stop-color="#F0F0F1"/><stop offset=".734" stop-color="#EFEFF0"/><stop offset=".742" stop-color="#EEEFEF"/><stop offset=".75" stop-color="#EDEEEF"/><stop offset=".758" stop-color="#EDEDEE"/><stop offset=".766" stop-color="#ECEDED"/><stop offset=".773" stop-color="#EBECED"/><stop offset=".781" stop-color="#EAEBEC"/><stop offset=".789" stop-color="#E9EAEB"/><stop offset=".797" stop-color="#E9EAEB"/><stop offset=".805" stop-color="#E8E9EA"/><stop offset=".813" stop-color="#E7E8E9"/><stop offset=".875" stop-color="#E6E7E8"/><stop offset="1" stop-color="#E6E7E8"/></linearGradient><linearGradient id="h" gradientUnits="userSpaceOnUse" x1="-.479" y1="0" x2="1" y2="0" gradientTransform="rotate(-120 277.555 55.511) scale(464.483)"><stop offset="0" stop-color="#FFF"/><stop offset=".5" stop-color="#FFF"/><stop offset=".531" stop-color="#FFF"/><stop offset=".547" stop-color="#FEFEFE"/><stop offset=".563" stop-color="#FDFDFD"/><stop offset=".578" stop-color="#FCFDFD"/><stop offset=".594" stop-color="#FCFCFC"/><stop offset=".609" stop-color="#FBFBFB"/><stop offset=".625" stop-color="#FAFAFA"/><stop offset=".641" stop-color="#F9F9FA"/><stop offset=".656" stop-color="#F8F9F9"/><stop offset=".672" stop-color="#F8F8F8"/><stop offset=".688" stop-color="#F7F7F7"/><stop offset=".703" stop-color="#F6F6F7"/><stop offset=".719" stop-color="#F5F6F6"/><stop offset=".734" stop-color="#F4F5F5"/><stop offset=".75" stop-color="#F3F4F4"/><stop offset=".766" stop-color="#F3F3F4"/><stop offset=".781" stop-color="#F2F2F3"/><stop offset=".797" stop-color="#F1F2F2"/><stop offset=".813" stop-color="#F0F1F1"/><stop offset=".828" stop-color="#EFF0F1"/><stop offset=".844" stop-color="#EFEFF0"/><stop offset=".859" stop-color="#EEEEEF"/><stop offset=".875" stop-color="#EDEEEE"/><stop offset=".891" stop-color="#ECEDEE"/><stop offset=".906" stop-color="#EBECED"/><stop offset=".922" stop-color="#EAEBEC"/><stop offset=".938" stop-color="#EAEBEB"/><stop offset=".953" stop-color="#E9EAEB"/><stop offset=".969" stop-color="#E8E9EA"/><stop offset=".984" stop-color="#E7E8E9"/><stop offset="1" stop-color="#E6E7E8"/></linearGradient><linearGradient id="l" gradientUnits="userSpaceOnUse" x1="-1.545" y1="0" x2="2.582" y2="0" gradientTransform="rotate(-120 1453.337 135.948) scale(852.037)"><stop offset="0" stop-color="#FFF"/><stop offset=".25" stop-color="#FFF"/><stop offset=".375" stop-color="#FFF"/><stop offset=".438" stop-color="#FFF"/><stop offset=".445" stop-color="#FFF"/><stop offset=".449" stop-color="#FEFEFE"/><stop offset=".453" stop-color="#FEFEFE"/><stop offset=".457" stop-color="#FDFDFD"/><stop offset=".461" stop-color="#FDFDFD"/><stop offset=".465" stop-color="#FCFCFC"/><stop offset=".469" stop-color="#FCFCFC"/><stop offset=".473" stop-color="#FBFBFB"/><stop offset=".477" stop-color="#FAFBFB"/><stop offset=".48" stop-color="#FAFAFA"/><stop offset=".484" stop-color="#F9FAFA"/><stop offset=".488" stop-color="#F9F9F9"/><stop offset=".492" stop-color="#F8F8F9"/><stop offset=".496" stop-color="#F8F8F8"/><stop offset=".5" stop-color="#F7F7F8"/><stop offset=".504" stop-color="#F6F7F7"/><stop offset=".508" stop-color="#F6F6F7"/><stop offset=".512" stop-color="#F5F6F6"/><stop offset=".516" stop-color="#F5F5F6"/><stop offset=".52" stop-color="#F4F5F5"/><stop offset=".523" stop-color="#F4F4F5"/><stop offset=".527" stop-color="#F3F4F4"/><stop offset=".531" stop-color="#F2F3F3"/><stop offset=".535" stop-color="#F2F2F3"/><stop offset=".539" stop-color="#F1F2F2"/><stop offset=".543" stop-color="#F1F1F2"/><stop offset=".547" stop-color="#F0F1F1"/><stop offset=".551" stop-color="#F0F0F1"/><stop offset=".555" stop-color="#EFF0F0"/><stop offset=".559" stop-color="#EEEFF0"/><stop offset=".563" stop-color="#EEEFEF"/><stop offset=".566" stop-color="#EDEEEF"/><stop offset=".57" stop-color="#EDEEEE"/><stop offset=".574" stop-color="#ECEDEE"/><stop offset=".578" stop-color="#ECECED"/><stop offset=".582" stop-color="#EBECED"/><stop offset=".586" stop-color="#EAEBEC"/><stop offset=".59" stop-color="#EAEBEC"/><stop offset=".594" stop-color="#E9EAEB"/><stop offset=".598" stop-color="#E9EAEB"/><stop offset=".602" stop-color="#E8E9EA"/><stop offset=".605" stop-color="#E8E9EA"/><stop offset=".609" stop-color="#E7E8E9"/><stop offset=".613" stop-color="#E7E8E8"/><stop offset=".617" stop-color="#E6E7E8"/><stop offset=".625" stop-color="#E6E7E8"/><stop offset=".75" stop-color="#E6E7E8"/><stop offset="1" stop-color="#E6E7E8"/></linearGradient><linearGradient id="p" gradientUnits="userSpaceOnUse" x1="-.73" y1="0" x2="1.717" y2="0" gradientTransform="rotate(-120 418.764 114.097) scale(423.174)"><stop offset="0" stop-color="#FFF"/><stop offset=".25" stop-color="#FFF"/><stop offset=".375" stop-color="#FFF"/><stop offset=".406" stop-color="#FFF"/><stop offset=".422" stop-color="#FFF"/><stop offset=".43" stop-color="#FEFEFE"/><stop offset=".438" stop-color="#FEFEFE"/><stop offset=".445" stop-color="#FDFDFD"/><stop offset=".453" stop-color="#FCFCFD"/><stop offset=".461" stop-color="#FCFCFC"/><stop offset=".469" stop-color="#FBFBFB"/><stop offset=".477" stop-color="#FAFAFB"/><stop offset=".484" stop-color="#FAFAFA"/><stop offset=".492" stop-color="#F9F9F9"/><stop offset=".5" stop-color="#F8F9F9"/><stop offset=".508" stop-color="#F8F8F8"/><stop offset=".516" stop-color="#F7F7F8"/><stop offset=".523" stop-color="#F6F7F7"/><stop offset=".531" stop-color="#F6F6F6"/><stop offset=".539" stop-color="#F5F5F6"/><stop offset=".547" stop-color="#F4F5F5"/><stop offset=".555" stop-color="#F4F4F4"/><stop offset=".563" stop-color="#F3F3F4"/><stop offset=".57" stop-color="#F2F3F3"/><stop offset=".578" stop-color="#F1F2F3"/><stop offset=".586" stop-color="#F1F1F2"/><stop offset=".594" stop-color="#F0F1F1"/><stop offset=".602" stop-color="#EFF0F1"/><stop offset=".609" stop-color="#EFEFF0"/><stop offset=".617" stop-color="#EEEFEF"/><stop offset=".625" stop-color="#EDEEEF"/><stop offset=".633" stop-color="#EDEDEE"/><stop offset=".641" stop-color="#ECEDEE"/><stop offset=".648" stop-color="#EBECED"/><stop offset=".656" stop-color="#EBECEC"/><stop offset=".664" stop-color="#EAEBEC"/><stop offset=".672" stop-color="#E9EAEB"/><stop offset=".68" stop-color="#E9EAEA"/><stop offset=".688" stop-color="#E8E9EA"/><stop offset=".695" stop-color="#E7E8E9"/><stop offset=".703" stop-color="#E7E8E9"/><stop offset=".719" stop-color="#E6E7E8"/><stop offset=".75" stop-color="#E6E7E8"/><stop offset="1" stop-color="#E6E7E8"/></linearGradient><linearGradient id="t" gradientUnits="userSpaceOnUse" x1="-1.301" y1="0" x2="1.776" y2="0" gradientTransform="rotate(-120 1212.829 172.073) scale(1107.954)"><stop offset="0" stop-color="#FFF"/><stop offset=".5" stop-color="#FFF"/><stop offset=".516" stop-color="#FFF"/><stop offset=".523" stop-color="#FFF"/><stop offset=".531" stop-color="#FEFEFE"/><stop offset=".539" stop-color="#FDFDFD"/><stop offset=".547" stop-color="#FCFCFD"/><stop offset=".555" stop-color="#FBFCFC"/><stop offset=".563" stop-color="#FBFBFB"/><stop offset=".57" stop-color="#FAFAFA"/><stop offset=".578" stop-color="#F9F9F9"/><stop offset=".586" stop-color="#F8F8F9"/><stop offset=".594" stop-color="#F7F8F8"/><stop offset=".602" stop-color="#F6F7F7"/><stop offset=".609" stop-color="#F5F6F6"/><stop offset=".617" stop-color="#F5F5F5"/><stop offset=".625" stop-color="#F4F4F5"/><stop offset=".633" stop-color="#F3F3F4"/><stop offset=".641" stop-color="#F2F3F3"/><stop offset=".648" stop-color="#F1F2F2"/><stop offset=".656" stop-color="#F0F1F2"/><stop offset=".664" stop-color="#F0F0F1"/><stop offset=".672" stop-color="#EFEFF0"/><stop offset=".68" stop-color="#EEEFEF"/><stop offset=".688" stop-color="#EDEEEE"/><stop offset=".695" stop-color="#ECEDEE"/><stop offset=".703" stop-color="#EBECED"/><stop offset=".711" stop-color="#EAEBEC"/><stop offset=".719" stop-color="#EAEAEB"/><stop offset=".727" stop-color="#E9EAEB"/><stop offset=".734" stop-color="#E8E9EA"/><stop offset=".742" stop-color="#E7E8E9"/><stop offset=".75" stop-color="#E6E7E8"/><stop offset="1" stop-color="#E6E7E8"/></linearGradient><linearGradient id="x" gradientUnits="userSpaceOnUse" x1="-.619" y1="0" x2="1.532" y2="0" gradientTransform="rotate(-120 2166.751 10.412) scale(858.648)"><stop offset="0" stop-color="#FFF"/><stop offset=".25" stop-color="#FFF"/><stop offset=".375" stop-color="#FFF"/><stop offset=".406" stop-color="#FFF"/><stop offset=".422" stop-color="#FFF"/><stop offset=".43" stop-color="#FFF"/><stop offset=".438" stop-color="#FEFEFE"/><stop offset=".445" stop-color="#FEFEFE"/><stop offset=".453" stop-color="#FDFDFD"/><stop offset=".461" stop-color="#FDFDFD"/><stop offset=".469" stop-color="#FCFCFC"/><stop offset=".477" stop-color="#FBFBFC"/><stop offset=".484" stop-color="#FBFBFB"/><stop offset=".492" stop-color="#FAFAFB"/><stop offset=".5" stop-color="#FAFAFA"/><stop offset=".508" stop-color="#F9F9F9"/><stop offset=".516" stop-color="#F8F9F9"/><stop offset=".523" stop-color="#F8F8F8"/><stop offset=".531" stop-color="#F7F7F8"/><stop offset=".539" stop-color="#F7F7F7"/><stop offset=".547" stop-color="#F6F6F7"/><stop offset=".555" stop-color="#F5F6F6"/><stop offset=".563" stop-color="#F5F5F6"/><stop offset=".57" stop-color="#F4F5F5"/><stop offset=".578" stop-color="#F4F4F4"/><stop offset=".586" stop-color="#F3F3F4"/><stop offset=".594" stop-color="#F2F3F3"/><stop offset=".602" stop-color="#F2F2F3"/><stop offset=".609" stop-color="#F1F2F2"/><stop offset=".617" stop-color="#F1F1F2"/><stop offset=".625" stop-color="#F0F1F1"/><stop offset=".633" stop-color="#EFF0F1"/><stop offset=".641" stop-color="#EFEFF0"/><stop offset=".648" stop-color="#EEEFF0"/><stop offset=".656" stop-color="#EEEEEF"/><stop offset=".664" stop-color="#EDEEEE"/><stop offset=".672" stop-color="#ECEDEE"/><stop offset=".68" stop-color="#ECEDED"/><stop offset=".688" stop-color="#EBECED"/><stop offset=".695" stop-color="#EBEBEC"/><stop offset=".703" stop-color="#EAEBEC"/><stop offset=".711" stop-color="#E9EAEB"/><stop offset=".719" stop-color="#E9EAEB"/><stop offset=".727" stop-color="#E8E9EA"/><stop offset=".734" stop-color="#E8E9EA"/><stop offset=".742" stop-color="#E7E8E9"/><stop offset=".75" stop-color="#E6E7E8"/><stop offset="1" stop-color="#E6E7E8"/></linearGradient><linearGradient id="B" gradientUnits="userSpaceOnUse" x1="-.452" y1="0" x2="1.283" y2="0" gradientTransform="rotate(-120 2300.74 28.347) scale(696.372)"><stop offset="0" stop-color="#FFF"/><stop offset=".25" stop-color="#FFF"/><stop offset=".375" stop-color="#FFF"/><stop offset=".438" stop-color="#FFF"/><stop offset=".453" stop-color="#FEFEFE"/><stop offset=".469" stop-color="#FDFDFD"/><stop offset=".484" stop-color="#FCFCFC"/><stop offset=".5" stop-color="#FBFBFB"/><stop offset=".516" stop-color="#FAFAFB"/><stop offset=".531" stop-color="#F9F9FA"/><stop offset=".547" stop-color="#F8F9F9"/><stop offset=".563" stop-color="#F7F8F8"/><stop offset=".578" stop-color="#F6F7F7"/><stop offset=".594" stop-color="#F5F6F6"/><stop offset=".609" stop-color="#F4F5F5"/><stop offset=".625" stop-color="#F3F4F4"/><stop offset=".641" stop-color="#F3F3F4"/><stop offset=".656" stop-color="#F2F2F3"/><stop offset=".672" stop-color="#F1F1F2"/><stop offset=".688" stop-color="#F0F0F1"/><stop offset=".703" stop-color="#EFEFF0"/><stop offset=".719" stop-color="#EEEEEF"/><stop offset=".734" stop-color="#EDEDEE"/><stop offset=".75" stop-color="#ECEDED"/><stop offset=".766" stop-color="#EBECEC"/><stop offset=".781" stop-color="#EAEBEC"/><stop offset=".797" stop-color="#E9EAEB"/><stop offset=".813" stop-color="#E8E9EA"/><stop offset=".828" stop-color="#E7E8E9"/><stop offset=".844" stop-color="#E6E7E8"/><stop offset=".875" stop-color="#E6E7E8"/><stop offset="1" stop-color="#E6E7E8"/></linearGradient><linearGradient id="F" gradientUnits="userSpaceOnUse" x1="0" y1="0" x2="1.37" y2="0" gradientTransform="rotate(-120 2494.216 57.277) scale(488.7)"><stop offset="0" stop-color="#FFF"/><stop offset=".125" stop-color="#FFF"/><stop offset=".188" stop-color="#FFF"/><stop offset=".219" stop-color="#FFF"/><stop offset=".234" stop-color="#FEFEFE"/><stop offset=".25" stop-color="#FEFEFE"/><stop offset=".266" stop-color="#FDFDFD"/><stop offset=".281" stop-color="#FCFCFC"/><stop offset=".297" stop-color="#FBFCFC"/><stop offset=".313" stop-color="#FBFBFB"/><stop offset=".328" stop-color="#FAFAFA"/><stop offset=".344" stop-color="#F9F9FA"/><stop offset=".359" stop-color="#F8F9F9"/><stop offset=".375" stop-color="#F8F8F8"/><stop offset=".391" stop-color="#F7F7F7"/><stop offset=".406" stop-color="#F6F6F7"/><stop offset=".422" stop-color="#F5F6F6"/><stop offset=".438" stop-color="#F5F5F5"/><stop offset=".453" stop-color="#F4F4F5"/><stop offset=".469" stop-color="#F3F4F4"/><stop offset=".484" stop-color="#F2F3F3"/><stop offset=".5" stop-color="#F2F2F3"/><stop offset=".516" stop-color="#F1F1F2"/><stop offset=".531" stop-color="#F0F1F1"/><stop offset=".547" stop-color="#EFF0F1"/><stop offset=".563" stop-color="#EEEFF0"/><stop offset=".578" stop-color="#EEEEEF"/><stop offset=".594" stop-color="#EDEEEE"/><stop offset=".609" stop-color="#ECEDEE"/><stop offset=".625" stop-color="#EBECED"/><stop offset=".641" stop-color="#EBECEC"/><stop offset=".656" stop-color="#EAEBEC"/><stop offset=".672" stop-color="#E9EAEB"/><stop offset=".688" stop-color="#E8E9EA"/><stop offset=".703" stop-color="#E8E9EA"/><stop offset=".719" stop-color="#E7E8E9"/><stop offset=".75" stop-color="#E6E7E8"/><stop offset="1" stop-color="#E6E7E8"/></linearGradient><linearGradient id="J" gradientUnits="userSpaceOnUse" x1="-.92" y1="0" x2="2.303" y2="0" gradientTransform="rotate(-120 1979.303 48.467) scale(847.948)"><stop offset="0" stop-color="#FFF"/><stop offset=".25" stop-color="#FFF"/><stop offset=".375" stop-color="#FFF"/><stop offset=".383" stop-color="#FFF"/><stop offset=".391" stop-color="#FEFEFE"/><stop offset=".398" stop-color="#FDFDFD"/><stop offset=".406" stop-color="#FCFCFC"/><stop offset=".414" stop-color="#FBFBFB"/><stop offset=".422" stop-color="#FAFAFB"/><stop offset=".43" stop-color="#F9FAFA"/><stop offset=".438" stop-color="#F8F9F9"/><stop offset=".445" stop-color="#F8F8F8"/><stop offset=".453" stop-color="#F7F7F7"/><stop offset=".461" stop-color="#F6F6F7"/><stop offset=".469" stop-color="#F5F5F6"/><stop offset=".477" stop-color="#F4F4F5"/><stop offset=".484" stop-color="#F3F4F4"/><stop offset=".492" stop-color="#F2F3F3"/><stop offset=".5" stop-color="#F1F2F2"/><stop offset=".508" stop-color="#F0F1F2"/><stop offset=".516" stop-color="#F0F0F1"/><stop offset=".523" stop-color="#EFEFF0"/><stop offset=".531" stop-color="#EEEEEF"/><stop offset=".539" stop-color="#EDEEEE"/><stop offset=".547" stop-color="#ECEDEE"/><stop offset=".555" stop-color="#EBECED"/><stop offset=".563" stop-color="#EAEBEC"/><stop offset=".57" stop-color="#E9EAEB"/><stop offset=".578" stop-color="#E8E9EA"/><stop offset=".586" stop-color="#E8E8E9"/><stop offset=".594" stop-color="#E7E8E9"/><stop offset=".625" stop-color="#E6E7E8"/><stop offset=".75" stop-color="#E6E7E8"/><stop offset="1" stop-color="#E6E7E8"/></linearGradient><linearGradient id="N" gradientUnits="userSpaceOnUse" x1="-1.179" y1="0" x2="2.402" y2="0" gradientTransform="rotate(-120 1772.701 28.198) scale(939.25)"><stop offset="0" stop-color="#FFF"/><stop offset=".25" stop-color="#FFF"/><stop offset=".375" stop-color="#FFF"/><stop offset=".406" stop-color="#FFF"/><stop offset=".414" stop-color="#FFF"/><stop offset=".422" stop-color="#FEFEFE"/><stop offset=".43" stop-color="#FDFDFD"/><stop offset=".438" stop-color="#FCFCFC"/><stop offset=".445" stop-color="#FBFBFB"/><stop offset=".453" stop-color="#FAFAFB"/><stop offset=".461" stop-color="#F9F9FA"/><stop offset=".469" stop-color="#F8F8F9"/><stop offset=".477" stop-color="#F7F8F8"/><stop offset=".484" stop-color="#F6F7F7"/><stop offset=".492" stop-color="#F5F6F6"/><stop offset=".5" stop-color="#F4F5F5"/><stop offset=".508" stop-color="#F3F4F4"/><stop offset=".516" stop-color="#F2F3F3"/><stop offset=".523" stop-color="#F1F2F2"/><stop offset=".531" stop-color="#F0F1F1"/><stop offset=".539" stop-color="#EFF0F1"/><stop offset=".547" stop-color="#EEEFF0"/><stop offset=".555" stop-color="#EDEEEF"/><stop offset=".563" stop-color="#ECEDEE"/><stop offset=".57" stop-color="#EBECED"/><stop offset=".578" stop-color="#EAEBEC"/><stop offset=".586" stop-color="#E9EAEB"/><stop offset=".594" stop-color="#E8E9EA"/><stop offset=".602" stop-color="#E7E8E9"/><stop offset=".609" stop-color="#E6E7E8"/><stop offset=".625" stop-color="#E6E7E8"/><stop offset=".75" stop-color="#E6E7E8"/><stop offset="1" stop-color="#E6E7E8"/></linearGradient></defs><g clip-path="url(#a)"><g clip-path="url(#b)"><g clip-path="url(#c)"><path fill="url(#d)" d="M636.05 2364.031L3090.817 946.77 1908.148-1101.672-546.617 315.59zm0 0"/></g></g></g><g clip-path="url(#e)"><g clip-path="url(#f)"><g clip-path="url(#g)"><path fill="url(#h)" d="M151.777 705.504l646.989-373.54-343.434-594.85-646.992 373.542zm0 0"/></g></g></g><g clip-path="url(#i)"><g clip-path="url(#j)"><g clip-path="url(#k)"><path fill="url(#l)" d="M1018.266 3585.727L4423.008 1620l-1758.45-3045.727L-740.183 540zm0 0"/></g></g></g><g clip-path="url(#m)"><g clip-path="url(#n)"><g clip-path="url(#o)"><path fill="url(#p)" d="M211.305 1073.754l940.39-542.934-517.773-896.816-940.39 542.937zm0 0"/></g></g></g><g clip-path="url(#q)"><g clip-path="url(#r)"><g clip-path="url(#s)"><path fill="url(#t)" d="M769.504 3492.82L4013.328 1620 2308.516-1332.82-935.31 540zm0 0"/></g></g></g><g clip-path="url(#u)"><g clip-path="url(#v)"><g clip-path="url(#w)"><path fill="url(#x)" d="M2652.406 2845.66l1715.367-990.37L3444.137 255.5l-1715.371 990.371zm0 0"/></g></g></g><g clip-path="url(#y)"><g clip-path="url(#z)"><g clip-path="url(#A)"><path fill="url(#B)" d="M3042.79 2620.27l1135.839-655.778L3574.262 917.7l-1135.84 655.778zm0 0"/></g></g></g><g clip-path="url(#C)"><g clip-path="url(#D)"><g clip-path="url(#E)"><path fill="url(#F)" d="M3367.559 2432.762l649.82-375.172-334.86-579.992-649.82 375.172zm0 0"/></g></g></g><g clip-path="url(#G)"><g clip-path="url(#H)"><g clip-path="url(#I)"><path fill="url(#J)" d="M2030.438 3204.75l2572.921-1485.477L3236.812-647.652 663.892 837.824zm0 0"/></g></g></g><g clip-path="url(#K)"><g clip-path="url(#L)"><g clip-path="url(#M)"><path fill="url(#N)" d="M1600.688 3452.867L4775.307 1620 3093.564-1292.867-81.055 540zm0 0"/></g></g></g></svg>