<svg id="Layer_1" data-name="Layer 1" xmlns="http://www.w3.org/2000/svg" viewBox="0 0 1609.77 475"><defs><clipPath id="clip-path"><path class="cls-1" d="M-704.96-203.17h1920v1080h-1920z"/></clipPath><clipPath id="clip-path-2"><path class="cls-1" d="M328.99 178.18l128.6 113.93V178.18h-128.6z"/></clipPath><clipPath id="clip-path-3"><path class="cls-1" d="M53.97 178.28l128.6 113.92h102.54V178.27l-231.14.01z"/></clipPath><style>.cls-1{fill:none}.cls-2,.cls-7{fill:#335296}.cls-3,.cls-8{fill:#93d4da}.cls-4{clip-path:url(#clip-path)}.cls-7,.cls-8{fill-rule:evenodd}.cls-9{isolation:isolate}.cls-10{fill:#ef3e42}</style></defs><path class="cls-2" d="M183.26 19.89h143.56v143.57h143.56v143.56H326.82v143.56H183.26V307.02H39.7V163.46h143.56V19.89z"/><path class="cls-3" d="M57.56 201.77h6.25v6.24h6.24v6.25h-6.24v6.24h-6.25v-6.24h-6.24v-6.25h6.24v-6.24z"/><g class="cls-4"><path class="cls-3" d="M317.86 409.68c-7.22 0-11-2.56-14.27-4.82-2.95-2-5.49-3.75-10.81-3.75s-7.87 1.74-10.82 3.75c-3.3 2.26-7 4.82-14.26 4.82s-11-2.56-14.27-4.82c-3-2-5.49-3.75-10.81-3.75s-7.87 1.74-10.81 3.75c-3.31 2.26-7.05 4.82-14.27 4.82s-11-2.56-14.26-4.82c-2.95-2-5.49-3.75-10.82-3.75V395c7.22 0 11 2.56 14.27 4.82 3 2 5.49 3.75 10.81 3.75s7.87-1.74 10.81-3.75c3.31-2.26 7.05-4.82 14.27-4.82s11 2.56 14.27 4.82c2.94 2 5.48 3.75 10.81 3.75s7.86-1.74 10.81-3.75c3.3-2.26 7.05-4.82 14.27-4.82s11 2.56 14.26 4.82c2.95 2 5.49 3.75 10.82 3.75zm-10.25-55.48a3.09 3.09 0 00-3.07-1.46l-20.55 3-19.86-15.38a3.07 3.07 0 00-2.32-.61l-30.23 4.39-1.83-13a3.15 3.15 0 00-1.2-2 3.07 3.07 0 00-2.27-.58l-10.67 1.55a3 3 0 00-2.59 3.45l1.88 13-6.85 1a3.07 3.07 0 00-2.54 2.31l-4.84 19.9v1.44a1.09 1.09 0 00.08.28v.1a2.83 2.83 0 00.16.36.22.22 0 01.05.08c0 .09.11.17.16.25l.1.12.12.15v.06l7.66 7.69a36.3 36.3 0 018.36 13.57.16.16 0 00.07.16 8.36 8.36 0 011.21-.83 29.09 29.09 0 018.67-3.05 7.73 7.73 0 015.44-4.4c6.08-1.07 12-3.18 18-.25a14.7 14.7 0 013.84 2.74 20.87 20.87 0 012.26 1l2.24 1.14c.23.12.9.61 1.19.8h.1l-.27-.25q1.32.31.51.27h1c5.78-.45 11.49-1.37 17.26-2.34a9.16 9.16 0 017.57-3.12c2.54-3 5.34-6.65 8.1-10.67l12.92-17.52a3.08 3.08 0 00.16-3.39m-99.92 12.59L211 353.3l5.25-.76 1.85 12.75zm11.82-31.07l4.6-.67 1.41 10-4.56.66zm4.62 28.69l-1.85-12.75 12.13-1.76 1.85 12.75zm18.19-2.64L240.47 349l12.42-1.81 1.85 12.81zm18.48-2.68l-1.82-12.7 2.46-.36 14.16 11z"/><path class="cls-3" d="M317.86 396.16c-7.22 0-11-2.56-14.27-4.82-2.95-2-5.49-3.75-10.81-3.75s-7.87 1.73-10.82 3.75c-3.3 2.26-7 4.82-14.26 4.82s-11-2.56-14.27-4.82c-3-2-5.49-3.75-10.81-3.75s-7.87 1.73-10.81 3.75c-3.31 2.26-7.05 4.82-14.27 4.82s-11-2.56-14.26-4.82c-2.95-2-5.49-3.75-10.82-3.75v-6.13c7.22 0 11 2.56 14.27 4.82 3 2 5.49 3.75 10.81 3.75s7.87-1.73 10.81-3.75c3.31-2.26 7.05-4.82 14.27-4.82s11 2.56 14.27 4.82c2.94 2 5.48 3.75 10.81 3.75s7.86-1.73 10.81-3.75c3.3-2.26 7.05-4.82 14.27-4.82s11 2.56 14.26 4.82c2.95 2 5.49 3.75 10.82 3.75zm0 40.57c-7.22 0-11-2.56-14.27-4.82-2.95-2-5.49-3.75-10.81-3.75s-7.87 1.74-10.82 3.75c-3.3 2.26-7 4.82-14.26 4.82s-11-2.56-14.27-4.82c-3-2-5.49-3.75-10.81-3.75s-7.87 1.74-10.81 3.75c-3.31 2.26-7.05 4.82-14.27 4.82s-11-2.56-14.26-4.82c-2.95-2-5.49-3.75-10.82-3.75V422c7.22 0 11 2.56 14.27 4.82 3 2 5.49 3.75 10.81 3.75s7.87-1.74 10.81-3.75c3.31-2.26 7.05-4.82 14.27-4.82s11 2.56 14.27 4.82c2.94 2 5.48 3.75 10.81 3.75s7.86-1.74 10.81-3.75c3.3-2.26 7.05-4.82 14.27-4.82s11 2.56 14.26 4.82c2.95 2 5.49 3.75 10.82 3.75z"/><path class="cls-3" d="M317.86 423.21c-7.22 0-11-2.56-14.27-4.82-2.95-2-5.49-3.75-10.81-3.75s-7.87 1.73-10.82 3.75c-3.3 2.26-7 4.82-14.26 4.82s-11-2.56-14.27-4.82c-3-2-5.49-3.75-10.81-3.75s-7.87 1.73-10.81 3.75c-3.31 2.26-7.05 4.82-14.27 4.82s-11-2.56-14.26-4.82c-2.95-2-5.49-3.75-10.82-3.75v-6.13c7.22 0 11 2.56 14.27 4.82 3 2 5.49 3.76 10.81 3.76s7.87-1.74 10.81-3.76c3.31-2.26 7.05-4.82 14.27-4.82s11 2.56 14.27 4.82c2.94 2 5.48 3.76 10.81 3.76s7.86-1.74 10.81-3.76c3.3-2.26 7.05-4.82 14.27-4.82s11 2.56 14.26 4.82c2.95 2 5.49 3.76 10.82 3.76z"/></g><g clip-path="url(#clip-path-2)"><path class="cls-3" d="M338.5 176.33h6.12V291.7h-6.12zm-9.42 0h6.12V291.7h-6.12zm18.83 0h6.12V291.7h-6.12zm9.42 0h6.12V291.7h-6.12zm9.42 0h6.12V291.7h-6.12zm9.41 0h6.12V291.7h-6.12zm9.42 0h6.12V291.7h-6.12zm9.41 0h6.12V291.7h-6.12zm9.42 0h6.12V291.7h-6.12zm9.41 0h6.12V291.7h-6.12zm9.42 0h6.12V291.7h-6.12zm9.42 0h6.12V291.7h-6.12zm9.41 0h6.12V291.7h-6.12zm9.42 0h6.12V291.7h-6.12z"/></g><g clip-path="url(#clip-path-3)"><path class="cls-3" d="M63.48 176.42h6.12v115.37h-6.12zm-9.42 0h6.12v115.37h-6.12zm18.83 0h6.12v115.37h-6.12zm9.42 0h6.12v115.37h-6.12zm9.41 0h6.12v115.37h-6.12zm9.42 0h6.12v115.37h-6.12zm9.42 0h6.12v115.37h-6.12zm9.41 0h6.12v115.37h-6.12zm9.42 0h6.12v115.37h-6.12zm9.41 0h6.12v115.37h-6.12zm9.42 0h6.12v115.37h-6.12zm9.42 0h6.12v115.37h-6.12zm9.41 0h6.12v115.37h-6.12zm9.42 0h6.12v115.37h-6.12zm19.11 1.04h6.12v115.37h-6.12zm-9.41 0h6.12v115.37h-6.12zm18.83 0h6.12v115.37H205zm9.41 0h6.12v115.37h-6.12zm9.42 0h6.12v115.37h-6.12zm9.42 0h6.12v115.37h-6.12zm9.41 0h6.12v115.37h-6.12zm9.42 0h6.12v115.37h-6.12zm9.41 0h6.12v115.37h-6.12zm9.42 0h6.12v115.37h-6.12zm9.42 0h6.12v115.37h-6.12zm9.41 0h6.12v115.37h-6.12zm9.42 0h6.12v115.37h-6.12zm9.41 0h6.12v115.37h-6.12z"/></g><g class="cls-4"><path class="cls-3" d="M317.86 178.27h-32.75V292.2h161.35l-128.6-113.93z"/><path class="cls-7" d="M223.57 370.36h3.9v3.79l3.1-2.17 2.24 3.19-3.9 2.73 3.9 2.72-2.24 3.2-3.1-2.18v3.79h-3.9v-3.79l-3.11 2.18-2.24-3.2 3.9-2.72-3.9-2.73 2.24-3.19 3.11 2.17v-3.79z"/><path class="cls-8" d="M132.94 261.61h7.98v7.76l6.36-4.45 4.58 6.54-7.97 5.58 7.97 5.58-4.58 6.53-6.36-4.45v7.76h-7.98v-7.76l-6.36 4.45-4.58-6.53 7.97-5.58-7.97-5.58 4.58-6.54 6.36 4.45v-7.76z"/><path class="cls-2" d="M286.41 247.51l-79.72-70.7 159.18.08-79.46 70.62z"/><path class="cls-8" d="M265.78 184.18l-18.49-12.67 22.41.62-7.52-21.11 17.76 13.67 6.34-21.5 6.33 21.5 17.77-13.67-7.52 21.11 22.41-.62-18.49 12.67 18.49 12.67-22.41-.62 7.52 21.12-17.77-13.67-6.33 21.5-6.34-21.5-17.76 13.67 7.52-21.12-22.41.62 18.49-12.67z"/><path class="cls-2" d="M286.28 168.84a15.35 15.35 0 11-15.35 15.35 15.34 15.34 0 0115.34-15.34m-168 18.36a14.56 14.56 0 11-14.56 14.56 14.56 14.56 0 0114.56-14.56"/><path class="cls-3" d="M192.07 30.47A11.36 11.36 0 00203.4 41h.6a24.19 24.19 0 0043.44 8.63 14.55 14.55 0 0018.92-13.87 14.19 14.19 0 00-1-5.31zm-.13 276.14a22.15 22.15 0 0039.52 0zm39.52 0a15.41 15.41 0 0027.49 0zm-24.67-154.54a13.12 13.12 0 0023.41 0zm-14.64 12.12a13.11 13.11 0 0023.4 0zm29.28 0a13.12 13.12 0 0023.41 0zm60.42-52.64a13.12 13.12 0 0023.41 0zm-14.65 12.12a13.11 13.11 0 0023.41 0zm29.29 0a13.11 13.11 0 0023.41 0z"/><path class="cls-2" d="M231.91 295.05l54.49-48.89 54.86 48.89H231.91z"/><path class="cls-3" d="M118.27 235.24l35.95-27.9 53.22 46.93 19.45-19.13 64.3 57.32H182.57l-64.3-57.22z"/><path class="cls-8" d="M101.58 254.93l-9.52-8.48h26.21l-16.69-14.85-16.69-14.84L68.2 231.6l-16.68 14.85h26.2l-9.52 8.48-16.68 14.84h25.5l-8.82 7.85-16.68 14.84h66.75l-16.69-14.84-8.81-7.85h25.5l-16.69-14.84z"/><path class="cls-3" d="M315.63 30.44h-37.75a33.51 33.51 0 0037.75 17.47zm-122.17 62.3a2.43 2.43 0 01-.43-4.83L287.33 71a2.43 2.43 0 01.86 4.79l-94.3 16.94h-.43"/><path class="cls-3" d="M242.15 91.4a2.44 2.44 0 01-2.4-2l-1.91-10.68a2.43 2.43 0 114.75-1v.17l1.92 10.68a2.42 2.42 0 01-1.95 2.81h-.05a3.09 3.09 0 01-.43 0"/><path class="cls-3" d="M252.08 88.38s-14.23.67-23.78 5l-5.93 5s-20.6 4.26-21.43 18.13c0 0 5.65 6.12 21.76 3.22l19-3.41a32.89 32.89 0 008.09-4.65c4.63-3.46 11.69-10 11.69-10l36.41-8.79 10 8 5.64-2.71-.91-5.09 2.54-5.34-5.52-6.34 2.65-15.13s-5.92-2.12-7.57 1.37L296.9 88.4l-39.78 5.78z"/><path class="cls-3" d="M214.64 123c-10.92 0-15.27-4.55-15.49-4.78a2.44 2.44 0 01-.64-1.8c.86-14.26 19-19.33 22.74-20.22l5.48-4.63a2.5 2.5 0 01.56-.35C237.15 86.7 251.36 86 252 86a2.45 2.45 0 012 .83l4.16 4.8 37-5.38 7.32-19.41a.42.42 0 01.08-.18c2.05-4.34 7.62-3.68 10.6-2.62a2.44 2.44 0 011.57 2.71l-2.45 14 4.67 5.4a2.43 2.43 0 01.37 2.64l-2.21 4.64.78 4.32a2.45 2.45 0 01-1.35 2.63l-5.64 2.7a2.43 2.43 0 01-2.56-.29l-9.08-7.22-34.65 8.36c-1.67 1.53-7.37 6.7-11.41 9.72a35.41 35.41 0 01-8.76 5l-.36.1-19 3.41a48.34 48.34 0 01-8.49.81m-11.13-7.49c1.91 1.25 7.53 3.91 18.76 1.89l18.84-3.37a33.54 33.54 0 007.28-4.24c4.47-3.35 11.42-9.77 11.49-9.83a2.47 2.47 0 011.08-.58l33.94-8.19-37.38 5.43a2.45 2.45 0 01-2.19-.81l-4.28-4.9c-3.47.27-14 1.31-21.43 4.6l-5.66 4.79a2.42 2.42 0 01-1.08.52c-.18 0-17.51 3.79-19.35 14.69m18.86-17.07zm75.76-7.91a2.5 2.5 0 011.28.52l8.81 7 2.6-1.25-.59-3.27a2.44 2.44 0 01.2-1.48l1.86-3.9-4.44-5.12a2.42 2.42 0 01-.56-2l2.25-12.86c-1.12-.13-2.23-.06-2.55.5l-7.78 20.63a2.46 2.46 0 01-1.05 1.24"/><path class="cls-3" d="M223 132.45a9.8 9.8 0 01-6.84-2.42c-3.85-3.52-3.39-9.46-3.37-9.71a2.43 2.43 0 114.85.41c-.08 1.06.09 4.15 1.81 5.72 1.2 1.08 3.13 1.39 5.72.93l25.61-4.6a2.43 2.43 0 011 4.75h-.18l-25.6 4.63a15.89 15.89 0 01-3 .29"/><path class="cls-3" d="M225.55 132.2a2.42 2.42 0 01-2.39-2l-1.83-10.2a2.43 2.43 0 014.79-.86l1.88 10.2a2.45 2.45 0 01-2 2.83 3.09 3.09 0 01-.43 0m19.43-3.46a2.42 2.42 0 01-2.39-2l-1.89-10.52a2.43 2.43 0 014.78-.86l1.89 10.52a2.43 2.43 0 01-2 2.82H245"/><path class="cls-7" d="M244.08 110.72a10.21 10.21 0 1110.2-10.22 10.23 10.23 0 01-10.2 10.21"/><path class="cls-8" d="M242.18 93.2h3.79v3.68l3.02-2.11 2.17 3.1-3.78 2.64 3.78 2.65-2.17 3.1-3.02-2.11v3.68h-3.79v-3.68l-3.01 2.11-2.17-3.1 3.78-2.65-3.78-2.64 2.17-3.1 3.01 2.11V93.2z"/><path class="cls-2" d="M203.51 115.47s0-8.46 17.78-14.28l3.35 16s-14.47 3.16-21.13-1.68m207.62 146.77a12.79 12.79 0 1012.8-12.78 12.79 12.79 0 00-12.78 12.78"/><path class="cls-2" d="M423.91 277.57a15.29 15.29 0 1115.29-15.29 15.3 15.3 0 01-15.29 15.29m0-25.57a10.28 10.28 0 1010.28 10.28A10.29 10.29 0 00423.91 252m-92.6 10.28a12.79 12.79 0 1012.8-12.78 12.79 12.79 0 00-12.79 12.78"/><path class="cls-2" d="M344.1 277.57a15.29 15.29 0 1115.29-15.29 15.3 15.3 0 01-15.29 15.29m0-25.57a10.28 10.28 0 1010.28 10.28A10.29 10.29 0 00344.1 252"/><path class="cls-2" d="M440 259.57l-7.53-12.79h-16.18l-10.51 12.79h-46L352 246.78h-15.34L329 259.57a5.21 5.21 0 01-6.24-3.21v-4.63h3.39l3.2-26.36h62.53l9.8 12.64 28.15 1.25 2.67 4.1s4.81 0 5.17 2.49a7.07 7.07 0 01-.18 3.65l.71 1.88h3.93v5.87z"/><path class="cls-2" d="M327.63 262.25a7.5 7.5 0 01-7.18-4.92 2.47 2.47 0 01-.19-1v-4.63a2.5 2.5 0 012.5-2.5h1.17l2.94-24.2a2.5 2.5 0 012.48-2.2h62.54a2.51 2.51 0 012 1l9.11 11.76 27 1.2a2.49 2.49 0 012 1.13l2 3c2.87.31 5.82 1.63 6.24 4.57a12.68 12.68 0 01.06 3.37h1.92a2.5 2.5 0 012.5 2.5v5.87a2.5 2.5 0 01-.72 1.8l-2.14 2.32a2.53 2.53 0 01-2.11.79 2.49 2.49 0 01-1.89-1.22l-6.86-11.6h-13.53l-9.75 11.87a2.51 2.51 0 01-1.94.91h-46a2.52 2.52 0 01-2.14-1.19l-7.1-11.59H338l-6.93 11.57a2.58 2.58 0 01-1.47 1.12 7.5 7.5 0 01-2.05.27m-2.36-6.45a2.51 2.51 0 002.2 1.45l7-11.75a2.5 2.5 0 012.15-1.22H352a2.49 2.49 0 012.13 1.19l7.11 11.6h43.36l9.76-11.88a2.48 2.48 0 011.93-.91h13.82l-1.67-2.57-26.87-1.19a2.56 2.56 0 01-1.87-1l-9-11.68h-59.13L328.63 252a2.51 2.51 0 01-2.48 2.21h-.88zm114.27-1.92l.08.13v-.13zm-4.42-7.52l.12.2a.33.33 0 010-.14l-.1-.06m-50.12-26.31h-47.56a3.51 3.51 0 01-.53-7 4.69 4.69 0 01.53 0h47.56a3.51 3.51 0 010 7m17.46 51.31h-36.48a3.51 3.51 0 01-.53-7h37a3.51 3.51 0 01.53 7h-.53"/><path class="cls-3" d="M397.49 236.86l-7.8-10.5H378v10.5h19.49z"/><path class="cls-8" d="M350.4 262.28a6.3 6.3 0 11-6.3-6.3 6.31 6.31 0 016.3 6.3m79.82 0a6.31 6.31 0 11-6.32-6.3 6.32 6.32 0 016.31 6.3m-84.86-12.78a10.51 10.51 0 1110.51-10.5 10.54 10.54 0 01-10.51 10.51"/><path class="cls-7" d="M343.4 231.45h3.9v3.79l3.1-2.17 2.24 3.19-3.89 2.73 3.89 2.72-2.24 3.2-3.1-2.18v3.79h-3.9v-3.79l-3.11 2.18-2.23-3.2 3.89-2.72-3.89-2.73 2.23-3.19 3.11 2.17v-3.79z"/><path class="cls-2" d="M213.81 295.05l8.08-27.47 8.56 27.47h-16.64zm16.8-.22l10.63-36.14 11.26 36.14h-21.89z"/><path class="cls-3" d="M294.66 308.64a10.49 10.49 0 0112.35 0l5-5a17.49 17.49 0 00-22.37 0zm-2.29 14.65a10.51 10.51 0 010-12.36l-5-5a17.51 17.51 0 000 22.36zm14.63 2.29a10.49 10.49 0 01-12.35 0l-5 5a17.52 17.52 0 0022.37 0zm2.3-14.65a10.47 10.47 0 010 12.36l5 5a17.51 17.51 0 000-22.36z"/><path class="cls-2" d="M219.55 252.3a18.29 18.29 0 00-33 0z"/><path class="cls-2" d="M186.57 252.3a18.28 18.28 0 00-33 0z"/><path class="cls-2" d="M209.81 228.9a18.29 18.29 0 00-23.32 23.32zm-23.32 23.32a18.28 18.28 0 00-23.31 23.31z"/><path class="cls-2" d="M209.37 275.53a18.28 18.28 0 00-23.31-23.31z"/><path class="cls-2" d="M186.06 252.22a18.29 18.29 0 00-23.32-23.32z"/><path class="cls-2" d="M181.7 248.32h8.84v44.96h-8.84z"/></g><g class="cls-9"><g class="cls-9"><path class="cls-2" d="M583 28.2l-17 105.99h45.81q5.73 0 4.62 5.86l-3 19.22q-1.11 5.88-6.28 5.87h-72.3q-5.75 0-4.63-5.88l20.92-131.12q.75-5.82 6.15-5.82h21.07q5.76 0 4.64 5.88zm50.2 131.07l20.92-131.11c.49-3.9 2.47-5.84 5.94-5.84h21.15q5.74 0 4.63 5.68l-21 131.29q-1.11 5.85-6.11 5.85h-20.9q-5.74 0-4.63-5.87zm142.15-48.95H729.2l-7.88 49c-.73 3.92-2.74 5.87-6 5.87h-20.4q-5.67 0-4.56-5.78l20.91-131.17q.74-5.93 6-5.92H791q5.55 0 4.81 5.86L793 45.58q-.74 5.87-6.09 5.87h-48.24l-4.88 30.34h45.81q5.55 0 4.62 5.87l-2.77 17q-.93 5.66-6.1 5.66z"/></g><g class="cls-9"><path class="cls-2" d="M885.42 106.47h-46.28L834.35 136h49.5q5.55 0 4.81 5.87l-2.78 17.19q-1.29 6.08-6.28 6.07h-75.49q-5.76 0-4.64-5.9l21.21-131.05q.74-5.87 5.91-5.86h74.65q5.53 0 4.8 5.86l-3 17.4q-.74 6.08-6.09 6.07H848l-4.37 26.91h46q5.16 0 4.61 5.86l-2.77 16.19c-.57 3.91-2.61 5.86-6.05 5.86z"/></g><g class="cls-9"><path class="cls-2" d="M981.39 79h39q5.36 0 4.62 5.87l-10.53 64.94q-.74 4.44-5.36 7.28-16.8 10.3-43.41 10.31-26.24 0-40.73-13.35t-14.5-40.66a134.85 134.85 0 011.66-20.23q6.11-37.83 25.22-55.53t50.71-17.7q25.31 0 38.79 10.32 3.87 3.24 1.66 7.69l-7.94 14.76q-2.77 5.46-7.95 2.83a52.91 52.91 0 00-23.27-5.26q-20.33 0-30.76 10t-14.15 33.46a89.34 89.34 0 00-1.29 14.77q0 15.16 7.29 21.94t22.45 6.78a41.06 41.06 0 0016.07-3l4.62-29.34h-16.07q-5.55 0-4.44-5.66l2.22-14.36c.61-3.94 2.7-5.86 6.09-5.86z"/></g><g class="cls-9"><path class="cls-2" d="M1087.8 167.36q-23.1 0-35.1-10.51t-12-31.16a82.66 82.66 0 011.11-13.15l13.77-84.34q.73-5.88 6.08-5.88h20.83q5.71 0 4.61 5.87l-13.1 81.33a54.93 54.93 0 00-.78 9.1q0 9.1 4.15 13.55t13.21 4.44q11.09 0 17.09-6.67t8.22-20.43L1129 28.18q1.11-5.87 6.12-5.86h21q5.73 0 4.63 5.88l-13.58 84.34q-4.44 27.51-18.94 41.17t-40.43 13.65z"/></g><g class="cls-9"><path class="cls-2" d="M1221.65 22.32h25.87q5 0 6.09 5.46l20 130.48a7.11 7.11 0 01-.92 5 4.55 4.55 0 01-4.06 1.92h-21.43c-3.58 0-5.54-1.82-5.91-5.46l-3.14-21.85h-42.86l-10.16 21.85q-2.4 5.46-7 5.46h-22.53c-1.85 0-3.08-.64-3.7-1.93s-.43-3 .56-5l62.06-130.48a11.07 11.07 0 012.77-4.21 6.85 6.85 0 014.36-1.24zm-15.81 86.58h30.74l-6.46-52.39-.37-.06zm110.6-86.58h42q49.52 0 49.52 37.83a95.34 95.34 0 01-.96 12.15q-5.38 33.24-35.62 42.56l20.5 42.89a5.43 5.43 0 01.37 5.09 4.1 4.1 0 01-4.06 2.3h-20.1a7.24 7.24 0 01-7.19-4.59l-18.73-40.93h-15.49l-6.46 39.65c-.72 3.94-2.71 5.9-6 5.9h-20.1c-3.88 0-5.44-1.93-4.71-5.77l20.93-131.12q.75-5.95 6.1-5.96zm14.77 69.38h17.2q12.77 0 19-4.75t7.86-15.07a35 35 0 00.55-5.87q0-7.68-5-11t-15.89-3.34h-17.18zm125.3 73.44h-39.34c-3.82 0-5.35-1.95-4.62-5.86l21-131.1q.74-5.87 5.91-5.86h36.4q28.06 0 42.21 12.24t14.13 39.14a125.57 125.57 0 01-1.48 19.22q-5.91 38.64-23.74 55.43t-50.47 16.79zm15.18-112.48h-10.33l-13.16 82.14h10.34q17.37 0 26.79-9t13.48-32.87a116.77 116.77 0 001.3-14.16q0-14.57-7-20.33t-21.42-5.78z"/></g></g><g class="cls-9"><g class="cls-9"><path class="cls-10" d="M595.05 326.82a46.65 46.65 0 0021.4-5.21q5.67-2.4 6.95 3l3.84 14.63c.74 2.67-.67 5.2-4.2 7.61q-15.74 9.81-35.85 9.81-24.69 0-38.68-13.62t-14-40.26a119.85 119.85 0 011.65-19Q542 247.11 560 228.87t46.18-18.22a72.51 72.51 0 0120.85 2.9q9.69 2.91 14.82 6.91a7.47 7.47 0 012.83 3.31c.3 1 0 2.43-1 4.3l-8.41 14.42q-2.74 5.22-7.86 2.81-8.05-4.61-19.39-4.61-17.19 0-26.79 10.31T568 283.75a116.45 116.45 0 00-1.28 14.42q0 14.83 6.95 21.74t21.38 6.91z"/></g><g class="cls-9"><path class="cls-10" d="M711.92 210.65q23.6 0 36.67 13.32t13.08 39.55a116.59 116.59 0 01-1.83 20.48q-11.72 72.72-68 72.71-23.59 0-36.67-13.22T642.05 304a135.74 135.74 0 011.65-20.43q12.06-72.92 68.22-72.92zM694.91 327q26.15 0 33.1-43.27a101 101 0 001.65-16.82q0-26.64-20.85-26.64-26.16 0-33.1 43.46a101.16 101.16 0 00-1.65 16.83q0 26.44 20.85 26.44zm169.18-19q0 23.83-15.73 36.15t-39.87 12.32a113.91 113.91 0 01-24.42-2.5q-11.43-2.5-17.47-6.31-4.2-2.41-2-7.21l7.69-15.23q2.73-5.4 7.31-3.4 11.7 6 26.89 6a43.71 43.71 0 0017.83-3.51q8-3.49 8-11.71c0-3.48-1.65-6.41-4.94-8.82s-8.36-5-15.18-7.81q-15-6.21-23.6-14.82t-8.6-23.63q0-23.64 14.63-35.16t39-11.51q23.76 0 36.94 8 4 2.61 1.83 7.21l-7.4 14.43q-2.73 5.61-7.49 3.4a63.75 63.75 0 00-24-4.2q-21.78 0-21.77 13.82a9.93 9.93 0 004.39 8.41q4.4 3.21 14.81 8 7.88 3.61 12.62 6.41a73.92 73.92 0 0110.07 7.31 28.33 28.33 0 017.86 10.52 34.91 34.91 0 012.6 13.84z"/></g><g class="cls-9"><path class="cls-10" d="M883.48 237.69l3.11-18.83c.48-3.87 2.44-5.81 5.85-5.81h85.71q5.67 0 4.57 5.81l-2.92 18.83q-1.11 6-6.22 6h-27.25l-16.9 105c-.74 3.87-2.75 5.81-6.06 5.81h-20.74q-5.68 0-4.59-5.83l16.9-104.94h-26.89q-5.49-.04-4.57-6.04z"/></g><g class="cls-9"><path class="cls-10" d="M1018.77 213.05h25.6q4.94 0 6 5.41l19.75 129.19a7 7 0 01-.91 4.9 4.52 4.52 0 01-4 1.91H1044c-3.54 0-5.49-1.81-5.86-5.41l-3.14-21.63h-42.39l-10.06 21.63q-2.37 5.4-6.95 5.41h-22.31q-2.74 0-3.66-1.92c-.61-1.27-.42-2.91.55-4.93l61.45-129.19a10.88 10.88 0 012.75-4.18 6.85 6.85 0 014.39-1.19zm-15.66 85.72h30.44l-6.41-51.87-.36-.06zm161.99-85.72h41.55q49 0 49 37.45a95.06 95.06 0 01-.91 12q-5.34 32.91-35.28 42.14l20.3 42.46a5.36 5.36 0 01.37 5 4.05 4.05 0 01-4 2.28h-19.9a7.18 7.18 0 01-7.12-4.55l-18.55-40.52h-15.33l-6.39 39.26q-1.08 5.83-5.92 5.84H1143q-5.76 0-4.66-5.72l20.72-129.82c.51-3.87 2.51-5.82 6.04-5.82zm14.63 68.7h17q12.63 0 18.77-4.71t7.78-14.92a34.29 34.29 0 00.55-5.81q0-7.6-4.94-10.91t-15.73-3.31h-17zm81.44 66.9l20.72-129.82c.48-3.85 2.45-5.78 5.87-5.78h20.94q5.7 0 4.6 5.63l-20.75 130q-1.1 5.79-6.06 5.79h-20.73q-5.68-.01-4.59-5.82zm121.26-21.83a46.65 46.65 0 0021.4-5.21q5.67-2.4 7 3l3.84 14.63q1.1 4-4.21 7.61-15.72 9.81-35.84 9.81-24.71 0-38.69-13.62t-14-40.26a119.85 119.85 0 011.65-19q5.85-36.65 23.87-54.88t46.18-18.22a72.61 72.61 0 0120.85 2.9q9.69 2.91 14.81 6.91a7.44 7.44 0 012.84 3.31c.3 1 0 2.43-1 4.3l-8.41 14.42q-2.75 5.22-7.87 2.81-8-4.61-19.38-4.61-17.2 0-26.8 10.31t-13.26 32.75a116.45 116.45 0 00-1.28 14.42q0 14.83 7 21.74t21.3 6.88zm111.13-113.77h25.61q4.93 0 6 5.41L1545 347.65a7 7 0 01-.92 4.9 4.49 4.49 0 01-4 1.91h-21.28c-3.54 0-5.48-1.81-5.85-5.41l-3.11-21.63h-42.43l-10.06 21.63q-2.37 5.4-6.95 5.41h-22.31q-2.74 0-3.66-1.92c-.61-1.27-.42-2.91.55-4.93l61.45-129.19a11 11 0 012.74-4.18 6.88 6.88 0 014.39-1.19zm-15.66 85.72h30.44l-6.4-51.87-.36-.06z"/></g></g><g class="cls-9"><g class="cls-9"><path class="cls-2" d="M552 420h10.53c1 0 1.38.53 1.24 1.59l-2.84 17.53a2.81 2.81 0 01-1.45 2q-4.53 2.79-11.72 2.79t-11-3.61q-3.91-3.6-3.91-11a36.45 36.45 0 01.45-5.46q1.63-10.22 6.81-15t13.69-4.78c4.55 0 8.05.93 10.47 2.79a1.56 1.56 0 01.45 2.08l-2.14 4a1.43 1.43 0 01-2.15.77 14.23 14.23 0 00-6.28-1.42q-5.49 0-8.31 2.7T542 424a23.33 23.33 0 00-.35 4c0 2.73.65 4.71 2 5.93s3.33 1.83 6.06 1.83A11.22 11.22 0 00554 435l1.24-7.92h-4.34c-1 0-1.39-.51-1.19-1.53l.6-3.88c.19-1.1.74-1.67 1.69-1.67z"/></g><g class="cls-9"><path class="cls-2" d="M574.15 404.75h11.34q13.37 0 13.37 10.21a27.27 27.27 0 01-.25 3.29q-1.46 9-9.62 11.49l5.53 11.58a1.46 1.46 0 01.1 1.38 1.09 1.09 0 01-1.09.61h-5.43a2 2 0 01-1.94-1.23L581.1 431h-4.18l-1.74 10.7q-.3 1.59-1.62 1.59h-5.43c-1 0-1.47-.52-1.27-1.55l5.65-35.41c.13-1.05.68-1.58 1.64-1.58zm4 18.74h4.65a8.35 8.35 0 005.12-1.29 6.11 6.11 0 002.12-4.07 9.4 9.4 0 00.15-1.58 3.31 3.31 0 00-1.35-3 7.92 7.92 0 00-4.29-.9h-4.65z"/></g><g class="cls-9"><path class="cls-2" d="M619.48 404.09q6.43 0 10 3.64t3.57 10.78a31.89 31.89 0 01-.5 5.58q-3.19 19.83-18.56 19.83-6.43 0-10-3.61t-3.56-10.76a36.91 36.91 0 01.45-5.57q3.29-19.89 18.6-19.89zm-4.64 31.74q7.14 0 9-11.8a27.62 27.62 0 00.45-4.59q0-7.26-5.69-7.26-7.12 0-9 11.85a28.61 28.61 0 00-.44 4.59q0 7.22 5.68 7.21zm34.47 8.09q-6.24 0-9.48-2.85t-3.24-8.41a22.38 22.38 0 01.3-3.55l3.72-22.77c.13-1.06.68-1.59 1.64-1.59h5.62c1 0 1.45.53 1.25 1.58l-3.54 22a15 15 0 00-.21 2.46 5.19 5.19 0 001.12 3.66 4.69 4.69 0 003.57 1.2 5.89 5.89 0 004.61-1.8 10.71 10.71 0 002.22-5.52l3.54-22c.2-1.05.75-1.58 1.65-1.58h5.65q1.56 0 1.26 1.59l-3.67 22.77q-1.2 7.44-5.11 11.12t-10.9 3.69zm54.87-37.59l-5.7 35.41c-.2 1.05-.75 1.57-1.66 1.57h-5.42a1.62 1.62 0 01-1.71-1l-8.5-21.82-3.42 21.26c-.2 1.06-.74 1.59-1.63 1.59h-5.29c-1 0-1.44-.52-1.24-1.58l5.65-35.4a1.54 1.54 0 011.65-1.58h5.35a1.68 1.68 0 011.75 1l8.45 21.79 3.42-21.25c.13-1.06.66-1.58 1.6-1.58h5.4c1 .01 1.44.54 1.3 1.59z"/></g><g class="cls-9"><path class="cls-2" d="M717 443.31h-10.68c-1 0-1.44-.52-1.24-1.58l5.68-35.4c.13-1.05.66-1.58 1.6-1.58h9.82q7.59 0 11.4 3.3t3.82 10.57a34.48 34.48 0 01-.4 5.19q-1.61 10.44-6.41 15t-13.59 4.5zm4-30.37h-2.78l-3.56 22.18h2.79q4.69 0 7.24-2.43t3.64-8.88a31.82 31.82 0 00.35-3.82q0-3.93-1.9-5.49c-1.22-1.04-3.14-1.56-5.78-1.56z"/></g><g class="cls-9"><path class="cls-2" d="M744.82 443.1l-4.24 6.72a1.38 1.38 0 01-1.25.76h-1.79a.63.63 0 01-.65-.41 1.16 1.16 0 01.15-1l3-5.9h-1.54c-.94 0-1.33-.51-1.2-1.52l1-5.8a1.6 1.6 0 011.69-1.47H745c1.07 0 1.5.49 1.3 1.47l-.85 5.19a4.59 4.59 0 01-.63 1.96zm36.99-38.35h7a1.57 1.57 0 011.64 1.47l5.39 35.24a1.93 1.93 0 01-.25 1.34 1.24 1.24 0 01-1.1.51h-5.79a1.45 1.45 0 01-1.6-1.47l-.85-5.9h-11.57l-2.74 5.9a2.07 2.07 0 01-1.9 1.47H764a1 1 0 01-1-.52 1.51 1.51 0 01.15-1.34l16.76-35.24a2.83 2.83 0 01.75-1.13 1.82 1.82 0 011.15-.33zm-4.27 23.38h8.3L784.1 414h-.1zm22.7 13.6l5.65-35.4c.13-1.06.67-1.58 1.6-1.58h5.71c1 0 1.45.51 1.26 1.53l-5.66 35.46c-.2 1.05-.75 1.57-1.65 1.57h-5.66c-1.03 0-1.49-.52-1.25-1.58zM823 404.75h11.3q13.38 0 13.37 10.21a27 27 0 01-.24 3.29q-1.45 9-9.63 11.49l5.54 11.58a1.46 1.46 0 01.1 1.38 1.1 1.1 0 01-1.09.61h-5.43a2 2 0 01-1.94-1.23L829.92 431h-4.18L824 441.72c-.19 1.06-.73 1.59-1.61 1.59H817c-1.05 0-1.47-.52-1.27-1.55l5.65-35.41c.08-1.07.62-1.6 1.62-1.6zm4 18.74h4.64a8.33 8.33 0 005.12-1.29 6.07 6.07 0 002.13-4.07 9.4 9.4 0 00.15-1.58 3.31 3.31 0 00-1.35-3 7.92 7.92 0 00-4.29-.9h-4.64z"/></g></g><g class="cls-9"><path class="cls-2" d="M893.67 424.14a19.4 19.4 0 01-4.57 12.14l3.56 5.46a1.09 1.09 0 01.05 1.06.82.82 0 01-.79.51h-5a2.21 2.21 0 01-2.08-.9l-1.23-1.71a16.4 16.4 0 01-10.28 3.11 15 15 0 01-9.3-2.76 9 9 0 01-3.67-7.57 12.07 12.07 0 012.81-8.06 16 16 0 017.51-4.86l-.68-1.06a11.52 11.52 0 01-1.74-6.12 8.67 8.67 0 011.67-5.49 8.56 8.56 0 014.16-3 18.73 18.73 0 015.79-.82 16.43 16.43 0 017.38 1.42 1.48 1.48 0 01.8 2l-1.3 3.16a1.47 1.47 0 01-2 1 14.24 14.24 0 00-4.4-.76c-3.22 0-4.83 1-4.83 3.17 0 .91.61 2.3 1.83 4.16l8 12.2a10.08 10.08 0 001.42-3.21 17.13 17.13 0 00.34-3.75c0-1.1.48-1.65 1.45-1.65h4.09c.67.09 1.01.84 1.01 2.33zm-18.2 12.24a8.22 8.22 0 004.67-1.19l-6.33-9.67q-4.87 1.92-4.88 6.27a4 4 0 001.67 3.33 8 8 0 004.87 1.26z"/></g><g class="cls-9"><g class="cls-9"><path class="cls-2" d="M937.12 430.64q0 6.51-4.29 9.86a17.09 17.09 0 01-10.83 3.36 31.38 31.38 0 01-6.66-.68 15.48 15.48 0 01-4.77-1.72 1.37 1.37 0 01-.55-2l2.1-4.15c.5-1 1.16-1.29 2-.93a15.83 15.83 0 007.33 1.64 11.91 11.91 0 004.86-1 3.26 3.26 0 002.17-3.19 2.91 2.91 0 00-1.35-2.41 20.75 20.75 0 00-4.14-2.13 19.34 19.34 0 01-6.43-4 8.71 8.71 0 01-2.34-6.44q0-6.45 4-9.59t10.63-3.14q6.48 0 10.08 2.18a1.39 1.39 0 01.5 2l-2 3.93c-.5 1-1.18 1.33-2 .93a17.41 17.41 0 00-6.53-1.15q-5.94 0-5.94 3.77a2.71 2.71 0 001.2 2.3 26 26 0 004 2.18c1.43.66 2.58 1.24 3.44 1.75a20.79 20.79 0 012.75 2 7.7 7.7 0 012.14 2.87 9.46 9.46 0 01.63 3.76zm26.46-3.17h-12.5l-1.29 8h13.37c1 0 1.43.53 1.29 1.58l-.74 4.65c-.24 1.09-.8 1.63-1.7 1.63h-20.39c-1 0-1.45-.53-1.25-1.59l5.73-35.39c.13-1.05.66-1.58 1.6-1.58h20.15c1 0 1.43.53 1.3 1.58l-.8 4.7c-.13 1.09-.68 1.64-1.65 1.64h-13.21l-1.18 7.26h12.42c.93 0 1.34.53 1.24 1.59l-.74 4.37c-.17 1.09-.72 1.56-1.65 1.56zm22.05-22.72h7a1.57 1.57 0 011.64 1.47l5.39 35.24a1.93 1.93 0 01-.25 1.34 1.24 1.24 0 01-1.1.51h-5.78a1.45 1.45 0 01-1.6-1.47l-.85-5.9H978.5l-2.74 5.9a2.07 2.07 0 01-1.9 1.47h-6.08a1 1 0 01-1-.52 1.51 1.51 0 01.15-1.34l16.76-35.24a2.83 2.83 0 01.75-1.13 1.82 1.82 0 011.19-.33zm-4.27 23.38h8.31L987.92 414h-.1zm55.2 6.77a1.14 1.14 0 01-1.09-.76l-5.53-14.2-3.51 21.79c-.2 1.06-.75 1.58-1.65 1.58h-5.4c-1 0-1.45-.52-1.26-1.58l5.66-35.4c.13-1.06.68-1.58 1.64-1.58h5.09c.87 0 1.4.31 1.6.93l6.29 16.32 11.6-16.32a2.12 2.12 0 011.75-.93h5.39c1 0 1.45.53 1.25 1.58l-5.65 35.4c-.2 1.06-.75 1.58-1.65 1.58h-5.41c-1 0-1.45-.52-1.25-1.58l3.51-21.79-10.11 14.2a1.38 1.38 0 01-1.27.76zm45.84-7.43h-12.5l-1.3 8h13.4c1 0 1.43.53 1.3 1.58l-.75 4.65c-.23 1.09-.8 1.63-1.69 1.63h-20.39c-1 0-1.45-.53-1.25-1.59l5.72-35.39c.14-1.05.67-1.58 1.6-1.58h20.16c1 0 1.43.53 1.29 1.58l-.79 4.7c-.14 1.09-.69 1.64-1.65 1.64h-13.25l-1.18 7.26h12.42c.93 0 1.35.53 1.25 1.59l-.75 4.37c-.17 1.09-.71 1.56-1.64 1.56zm17.23 15.84H1089c-1 0-1.45-.52-1.25-1.58l5.69-35.4c.13-1.05.66-1.58 1.59-1.58h9.83q7.58 0 11.4 3.3t3.81 10.57a33.22 33.22 0 01-.4 5.19q-1.59 10.44-6.41 15t-13.63 4.5zm4.1-30.37h-2.79l-3.55 22.18h2.79c3.12 0 5.54-.81 7.23-2.43s2.91-4.58 3.64-8.88a29.83 29.83 0 00.35-3.82q0-3.93-1.89-5.49t-5.78-1.56zm18.65 28.79l5.65-35.4c.13-1.06.66-1.58 1.6-1.58h5.71c1 0 1.45.51 1.25 1.53l-5.65 35.46c-.2 1.05-.76 1.57-1.66 1.57h-5.65c-1.04 0-1.45-.52-1.25-1.58zm33.07-5.95a12.76 12.76 0 005.83-1.42c1-.44 1.67-.17 1.9.82l1 4c.2.73-.19 1.42-1.15 2.08a18.13 18.13 0 01-9.78 2.68q-6.73 0-10.55-3.72t-3.81-11a32.72 32.72 0 01.45-5.19q1.59-10 6.5-15a17 17 0 0112.6-5 19.71 19.71 0 015.69.8 12.19 12.19 0 014 1.88 2 2 0 01.77.9 1.75 1.75 0 01-.27 1.18l-2.3 3.93a1.45 1.45 0 01-2.14.76 10.59 10.59 0 00-5.29-1.25 9.52 9.52 0 00-7.31 2.81q-2.61 2.82-3.61 8.93a30.16 30.16 0 00-.35 3.93q0 4.05 1.89 5.93c1.36 1.32 3.3 1.95 5.93 1.95zm30.31-31.03h7a1.58 1.58 0 011.65 1.47l5.38 35.24a1.88 1.88 0 01-.25 1.34 1.22 1.22 0 01-1.09.51h-5.79a1.45 1.45 0 01-1.6-1.47l-.84-5.9h-11.57l-2.75 5.9a2.05 2.05 0 01-1.89 1.47h-6.09a1 1 0 01-1-.52 1.58 1.58 0 01.15-1.34l16.76-35.24a2.83 2.83 0 01.75-1.13 1.85 1.85 0 011.18-.33zm-4.27 23.38h8.3L1188 414h-.1zm36.68-21.79l-4.61 28.66h12.37c1 0 1.45.53 1.25 1.58l-.8 5.19c-.2 1.06-.77 1.58-1.7 1.58h-19.52c-1 0-1.45-.52-1.25-1.58l5.65-35.41a1.55 1.55 0 011.66-1.57h5.69q1.56-.04 1.26 1.55zm50.83 21.13h-12.5l-1.29 8h13.37c1 0 1.43.53 1.29 1.58l-.74 4.65c-.24 1.09-.8 1.63-1.7 1.63H1247c-1 0-1.45-.53-1.25-1.59l5.73-35.39c.13-1.05.66-1.58 1.6-1.58h20.15c1 0 1.43.53 1.3 1.58l-.8 4.7c-.13 1.09-.68 1.64-1.65 1.64h-13.21l-1.18 7.26h12.42c.93 0 1.35.53 1.24 1.59l-.74 4.37c-.18 1.09-.73 1.56-1.61 1.56z"/></g><g class="cls-9"><path class="cls-2" d="M1283.49 443.31h-6.58q-1.32 0-1.5-1.47l-4.94-35.23c-.17-1.24.24-1.86 1.22-1.86h5.52c.9 0 1.4.52 1.5 1.57l2.09 18.51.49 8.82h.15l3.4-8.91 8-18.52a1.89 1.89 0 011.89-1.47h6.14a1 1 0 011 .52 1.66 1.66 0 01-.1 1.34l-16.32 35.23a2.24 2.24 0 01-1.96 1.47z"/></g><g class="cls-9"><path class="cls-2" d="M1310.9 404.75h7a1.58 1.58 0 011.65 1.47l5.38 35.24a1.88 1.88 0 01-.25 1.34 1.22 1.22 0 01-1.09.51h-5.79a1.45 1.45 0 01-1.6-1.47l-.85-5.9h-11.57l-2.74 5.9a2.05 2.05 0 01-1.89 1.47H1293a1 1 0 01-1-.52 1.58 1.58 0 01.15-1.34l16.85-35.24a2.83 2.83 0 01.75-1.13 1.85 1.85 0 011.15-.33zm-4.28 23.38h8.31l-1.75-14.13h-.1z"/></g><g class="cls-9"><path class="cls-2" d="M1345.09 435.78a12.84 12.84 0 005.84-1.42c1-.44 1.66-.17 1.89.82l1 4c.2.73-.18 1.42-1.15 2.08a18.12 18.12 0 01-9.77 2.68q-6.75 0-10.55-3.72t-3.82-11a32.72 32.72 0 01.47-5.22q1.59-10 6.51-15a16.94 16.94 0 0112.59-5 19.71 19.71 0 015.69.8 12.19 12.19 0 014 1.88 2 2 0 01.77.9 1.75 1.75 0 01-.27 1.18l-2.3 3.93a1.45 1.45 0 01-2.14.76 10.59 10.59 0 00-5.29-1.25 9.52 9.52 0 00-7.31 2.81q-2.61 2.82-3.61 8.93a30.16 30.16 0 00-.35 3.93q0 4.05 1.89 5.93c1.34 1.35 3.28 1.98 5.91 1.98z"/></g><g class="cls-9"><path class="cls-2" d="M1372 443.92c-4.16 0-7.31-.95-9.48-2.85s-3.24-4.69-3.24-8.41a22.38 22.38 0 01.3-3.55l3.72-22.77c.13-1.06.68-1.59 1.64-1.59h5.63c1 0 1.44.53 1.24 1.58l-3.54 22a15 15 0 00-.21 2.46 5.24 5.24 0 001.12 3.66 4.69 4.69 0 003.57 1.2 5.91 5.91 0 004.62-1.8 10.8 10.8 0 002.22-5.52l3.53-22c.2-1.05.75-1.58 1.65-1.58h5.66c1 0 1.45.53 1.25 1.59l-3.68 22.77q-1.2 7.44-5.11 11.12t-10.89 3.69z"/></g><g class="cls-9"><path class="cls-2" d="M1408.67 404.75h7a1.57 1.57 0 011.64 1.47l5.39 35.24a1.93 1.93 0 01-.25 1.34 1.23 1.23 0 01-1.09.51h-5.79a1.45 1.45 0 01-1.6-1.47l-.85-5.9h-11.57l-2.74 5.9a2.07 2.07 0 01-1.9 1.47h-6.08a1 1 0 01-1-.52 1.51 1.51 0 01.15-1.34l16.76-35.24a2.83 2.83 0 01.75-1.13 1.83 1.83 0 011.18-.33zm-4.28 23.38h8.3L1411 414h-.1z"/></g><g class="cls-9"><path class="cls-2" d="M1424.4 411.47l.85-5.14c.13-1.05.67-1.58 1.6-1.58h23.37c1 0 1.45.53 1.25 1.58l-.8 5.14c-.2 1.09-.76 1.64-1.69 1.64h-7.44l-4.61 28.62c-.2 1.06-.75 1.58-1.65 1.58h-5.65c-1 0-1.45-.52-1.25-1.58l4.6-28.62h-7.33c-1 0-1.41-.55-1.25-1.64zm26.14 30.26l5.65-35.4c.13-1.06.67-1.58 1.6-1.58h5.71q1.56 0 1.26 1.53l-5.66 35.46c-.2 1.05-.75 1.57-1.65 1.57h-5.66c-1.03 0-1.45-.52-1.25-1.58zm35.56-37.64q6.45 0 10 3.64t3.56 10.78a31.88 31.88 0 01-.49 5.58q-3.2 19.83-18.56 19.83-6.43 0-10-3.61t-3.57-10.76a36.91 36.91 0 01.45-5.57q3.31-19.89 18.61-19.89zm-4.63 31.74q7.13 0 9-11.8a28.61 28.61 0 00.44-4.59q0-7.26-5.68-7.26-7.14 0-9 11.85a27.62 27.62 0 00-.45 4.59q0 7.22 5.69 7.21zm54.82-29.5l-5.7 35.41c-.2 1.05-.75 1.57-1.66 1.57h-5.43a1.64 1.64 0 01-1.71-1l-8.49-21.82-3.42 21.26c-.2 1.06-.75 1.59-1.64 1.59H1503c-1 0-1.43-.52-1.23-1.58l5.65-35.4a1.54 1.54 0 011.65-1.58h5.35a1.68 1.68 0 011.75 1l8.44 21.79 3.43-21.25c.13-1.06.66-1.58 1.6-1.58h5.4c.96.01 1.38.54 1.25 1.59z"/></g></g></svg>