<svg id="Layer_1" data-name="Layer 1" xmlns="http://www.w3.org/2000/svg" viewBox="0 0 233.79 237.15"><defs><clipPath id="clip-path"><path class="cls-1" d="M0 18.24h233.79v200.67H0z"/></clipPath><clipPath id="clip-path-2"><path class="cls-1" d="M69.38 114.54c-3.48 0-10.13 6.25-18.62 6.25-6 0-5.63-4.43-1.65-6.12a5.22 5.22 0 003.19-4.82c0-5.48-7.56-5-6.09-8.79 2.42-6.17 18.89 2.4 20.43 3.34a5.23 5.23 0 005.47 0c2.5-1.52 10.23-5.48 15.88-5.48 4.65 0 7 3.83 1.66 6.11a5.27 5.27 0 000 9.64c4.14 1.75 4.27 6.11-1.66 6.11-8.49 0-15.13-6.24-18.61-6.24zM88 131.26c12.61 0 19.43-12.24 12.29-21.41C108.81 98.91 98 79 69.38 93.94c-28.6-15-39.43 5-30.9 15.91-8.53 11 2.29 30.9 30.9 15.92 3.99 2.09 11.56 5.49 18.62 5.49zM11.92 67.51a1.53 1.53 0 010 3 1.53 1.53 0 010-3zm114.91 0c1.83 0 2 2.86.22 3a1.52 1.52 0 11-.22-3zm-5.14 12.37l-1.79 19.9c-9.38 2.4-4.37 13.76 2.42 10.2a11.36 11.36 0 01.58 3.94 5.24 5.24 0 005.23 5.14c8.33 0 4.92-12.77 2-16.23l2.08-23.08c10.38-5.24 7.85-21.27-4-22.63l-14.8-26.88c-3.32-6-12.49-1-9.18 5.05l14 25.39a12.06 12.06 0 003.46 19.2zm-82.46 83.33c-5 0-5 7.6 0 7.62s5-7.62 0-7.62zm-5.51 17c-12.82-5.38-11-24.56 2.82-27.21l4-13.64c2-6.59 12-3.61 10 3L46.87 155c9.85 6.27 8.35 21.36-2.68 25.45v33.21a5.24 5.24 0 01-5.19 5.2H27.27c-6.86 0-6.86-10.47 0-10.47h6.45zm65.81-17c-5 0-5.08 7.66 0 7.66s5.02-7.68 0-7.68zm-5 17.24c-11-4.1-12.55-19.21-2.69-25.49l-3.73-12.62c-2-6.58 8.09-9.56 10-3l4 13.62c13.88 2.65 15.67 21.87 2.82 27.25v28.17h6.45c6.87 0 6.87 10.47 0 10.47H99.8a5.25 5.25 0 01-5.24-5.24zm89.92-78.79c-27 0-51.41 16.67-38.83 45.44 2.47 5.65 5.76 11 3.22 19.41-2.32 7.6 6.3 7.83 9.21 8.91 12.21 4.55 14.08 20.88 14.31 27.69.32 1.06 5.06 3.7 12.39 3.7 5.79 0 10-1.79 10.08-3.41l.64-8.58c.1-.64 2.54-15.64 17.26-20.46 2.31-.76 6.87-3.45 5.94-5.24a17.48 17.48 0 01-.31-16c5.5-10.75 4.93-23.34 4.85-24.58-2.41-19.87-22.36-26.9-38.73-26.9zm.3 115.62c11.88 0 19.93-5.14 20.52-13.11l.58-7.93c.23-1.19 2.08-9.29 10.14-11.93 4.38-1.44 10.26-5 12.44-10.4 3.08-7.57-3.41-10.87-.75-16.06 7.17-14 6.06-29.61 5.95-30.47-3-25-26.85-36.19-49.18-36.19-33.68 0-64.49 23.28-48.43 60.1 1.9 4.34 4 7.85 2.76 12.29-1.88 6.28-.23 10.74 1.48 13.37 4 6.21 11.93 8 14.56 8.46 4.82 2.23 6.82 10.71 7.08 18.06.36 9.47 12.1 13.79 22.88 13.79zm17.31-83.95c-6 0-6 9.22 0 9.22s6.07-9.24.03-9.24zm0 19.69a15.08 15.08 0 1115.07-15.08A15.1 15.1 0 01202.09 153zm-38.72-19.69c-6 0-6 9.22 0 9.22s6.07-9.24.03-9.24zm0 19.69a15.08 15.08 0 1115.08-15.08A15.1 15.1 0 01163.37 153zm19.36 32.59a5.25 5.25 0 01-5.24-5.24v-14.9c0-6.86 10.47-6.86 10.47 0v14.88a5.24 5.24 0 01-5.2 5.24zM9.54 119.64a5.24 5.24 0 005.24-5.13 11.81 11.81 0 01.57-4c6.46 3.39 11.46-6.93 3.59-9.84l-1.88-20.79a12.06 12.06 0 003.47-19.2l14-25.39c3.31-6-5.86-11.06-9.17-5.05L10.54 57.12c-11.86 1.36-14.39 17.39-4 22.63l2 22.61c-4.07 3.64-7.49 17.28 1 17.28zm54.6-87.43c-9-5.43-19.56-2.88-19.68-2.85-6.65 1.69-9.21-8.48-2.55-10.15.65-.16 14.8-3.58 27.46 3.93 12.63-7.51 26.82-4.09 27.47-3.93 6.63 1.66 4.16 11.79-2.53 10.16-.13 0-10.77-2.5-19.7 2.84v4.12a72.72 72.72 0 0124 5.9c6.43 2.8 2 12.27-4.18 9.6a61.71 61.71 0 00-19.79-4.95v5.44a65.51 65.51 0 0128.83 10.06c6 3.72.13 12.43-5.55 8.88A54.94 54.94 0 0074.61 63v6a56.74 56.74 0 0121.79 7.43c6.08 3.51.57 12.41-5.23 9.07a46.67 46.67 0 00-16.56-6V84c0 6.87-10.47 6.87-10.47 0v-4.7A39 39 0 0047 85.23c-5.59 3.93-11.63-4.54-6.08-8.52a49.93 49.93 0 0123.2-7.91v-5.93a54.4 54.4 0 00-24.22 8.21c-5.58 4-11.67-4.53-6.09-8.52a64.7 64.7 0 0130.33-10.32v-5.35a60.66 60.66 0 00-19.79 4.83c-6.15 3-10.79-6.32-4.67-9.37a69.46 69.46 0 0124.46-6v-4.14"/></clipPath><linearGradient id="linear-gradient" x1="-565.07" y1="504.64" x2="-564.97" y2="504.64" gradientTransform="matrix(2426.21 0 0 -2426.21 1370981.97 1224482.31)" gradientUnits="userSpaceOnUse"><stop offset="0" stop-color="#002a39"/><stop offset=".03" stop-color="#002a39"/><stop offset=".04" stop-color="#002a39"/><stop offset=".05" stop-color="#002b3a"/><stop offset=".05" stop-color="#002c3b"/><stop offset=".06" stop-color="#002d3c"/><stop offset=".07" stop-color="#002d3c"/><stop offset=".08" stop-color="#002e3d"/><stop offset=".09" stop-color="#002f3e"/><stop offset=".09" stop-color="#00303f"/><stop offset=".1" stop-color="#00303f"/><stop offset=".11" stop-color="#003140"/><stop offset=".12" stop-color="#003241"/><stop offset=".13" stop-color="#003342"/><stop offset=".13" stop-color="#003342"/><stop offset=".14" stop-color="#003443"/><stop offset=".15" stop-color="#003544"/><stop offset=".16" stop-color="#003645"/><stop offset=".16" stop-color="#003645"/><stop offset=".17" stop-color="#003746"/><stop offset=".18" stop-color="#003847"/><stop offset=".19" stop-color="#003948"/><stop offset=".2" stop-color="#003948"/><stop offset=".2" stop-color="#003a49"/><stop offset=".21" stop-color="#003b4a"/><stop offset=".22" stop-color="#003c4b"/><stop offset=".23" stop-color="#003c4b"/><stop offset=".23" stop-color="#003d4c"/><stop offset=".24" stop-color="#003e4d"/><stop offset=".25" stop-color="#003f4e"/><stop offset=".26" stop-color="#003f4f"/><stop offset=".27" stop-color="#00404f"/><stop offset=".27" stop-color="#004150"/><stop offset=".28" stop-color="#004251"/><stop offset=".29" stop-color="#004252"/><stop offset=".3" stop-color="#004352"/><stop offset=".3" stop-color="#004453"/><stop offset=".31" stop-color="#004554"/><stop offset=".32" stop-color="#004555"/><stop offset=".33" stop-color="#004655"/><stop offset=".34" stop-color="#004756"/><stop offset=".34" stop-color="#004857"/><stop offset=".35" stop-color="#004858"/><stop offset=".36" stop-color="#004958"/><stop offset=".37" stop-color="#004a59"/><stop offset=".38" stop-color="#004b5a"/><stop offset=".38" stop-color="#004b5b"/><stop offset=".39" stop-color="#004c5b"/><stop offset=".4" stop-color="#004d5c"/><stop offset=".41" stop-color="#004e5d"/><stop offset=".41" stop-color="#004e5e"/><stop offset=".42" stop-color="#004f5e"/><stop offset=".43" stop-color="#00505f"/><stop offset=".44" stop-color="#005160"/><stop offset=".45" stop-color="#005161"/><stop offset=".45" stop-color="#005261"/><stop offset=".46" stop-color="#005362"/><stop offset=".47" stop-color="#005463"/><stop offset=".48" stop-color="#005464"/><stop offset=".48" stop-color="#005564"/><stop offset=".49" stop-color="#005665"/><stop offset=".5" stop-color="#005766"/><stop offset=".51" stop-color="#005767"/><stop offset=".52" stop-color="#005868"/><stop offset=".52" stop-color="#005968"/><stop offset=".53" stop-color="#005a69"/><stop offset=".54" stop-color="#005a6a"/><stop offset=".55" stop-color="#005b6b"/><stop offset=".55" stop-color="#005c6b"/><stop offset=".56" stop-color="#005d6c"/><stop offset=".57" stop-color="#005d6d"/><stop offset=".58" stop-color="#005e6e"/><stop offset=".59" stop-color="#005f6e"/><stop offset=".59" stop-color="#00606f"/><stop offset=".6" stop-color="#006070"/><stop offset=".61" stop-color="#006171"/><stop offset=".62" stop-color="#006271"/><stop offset=".63" stop-color="#006372"/><stop offset=".63" stop-color="#006373"/><stop offset=".64" stop-color="#006474"/><stop offset=".65" stop-color="#006574"/><stop offset=".66" stop-color="#006675"/><stop offset=".66" stop-color="#006676"/><stop offset=".67" stop-color="#006777"/><stop offset=".68" stop-color="#006877"/><stop offset=".69" stop-color="#006978"/><stop offset=".7" stop-color="#006979"/><stop offset=".7" stop-color="#006a7a"/><stop offset=".71" stop-color="#006b7a"/><stop offset=".72" stop-color="#006c7b"/><stop offset=".73" stop-color="#006c7c"/><stop offset=".73" stop-color="#006d7d"/><stop offset=".74" stop-color="#006e7d"/><stop offset=".75" stop-color="#006f7e"/><stop offset=".76" stop-color="#006f7f"/><stop offset=".77" stop-color="#007080"/><stop offset=".77" stop-color="#007181"/><stop offset=".78" stop-color="#007281"/><stop offset=".79" stop-color="#007282"/><stop offset=".8" stop-color="#007383"/><stop offset=".8" stop-color="#007484"/><stop offset=".81" stop-color="#007584"/><stop offset=".82" stop-color="#007585"/><stop offset=".83" stop-color="#007686"/><stop offset=".84" stop-color="#007787"/><stop offset=".84" stop-color="#007887"/><stop offset=".85" stop-color="#007888"/><stop offset=".86" stop-color="#007989"/><stop offset=".87" stop-color="#007a8a"/><stop offset=".88" stop-color="#007b8a"/><stop offset=".88" stop-color="#007b8b"/><stop offset=".89" stop-color="#007c8c"/><stop offset=".9" stop-color="#007d8d"/><stop offset=".91" stop-color="#007e8d"/><stop offset=".91" stop-color="#007e8e"/><stop offset=".92" stop-color="#007f8f"/><stop offset=".93" stop-color="#008090"/><stop offset=".94" stop-color="#008090"/><stop offset=".95" stop-color="#008191"/><stop offset=".95" stop-color="#008292"/><stop offset=".96" stop-color="#008393"/><stop offset=".97" stop-color="#008393"/><stop offset=".98" stop-color="#008494"/><stop offset=".98" stop-color="#008595"/><stop offset="1" stop-color="#008696"/></linearGradient><style>.cls-1{fill:none}</style></defs><g clip-path="url(#clip-path)"><g clip-path="url(#clip-path-2)"><path d="M-3.85 15.63v203.23h238.73V15.63z" fill="url(#linear-gradient)"/></g></g></svg>